<mxfile host="Electron" agent="Mozilla/5.0 (Windows NT 10.0; Win64; x64) AppleWebKit/537.36 (KHTML, like Gecko) draw.io/26.0.15 Chrome/132.0.6834.196 Electron/34.2.0 Safari/537.36" version="26.0.15">
  <diagram name="Страница — 1" id="-z0BligRgzkxz-LzAZMq">
    <mxGraphModel dx="2602" dy="1633" grid="1" gridSize="10" guides="1" tooltips="1" connect="1" arrows="1" fold="1" page="1" pageScale="1" pageWidth="1169" pageHeight="827" math="0" shadow="0">
      <root>
        <mxCell id="0" />
        <mxCell id="1" parent="0" />
        <mxCell id="5BqqWERzwNXMWdmKXzrG-37" value="People" style="shape=table;startSize=30;container=1;collapsible=1;childLayout=tableLayout;fixedRows=1;rowLines=0;fontStyle=1;align=center;resizeLast=1;html=1;fillColor=light-dark(#FFFFFF,#000000);" parent="1" vertex="1">
          <mxGeometry x="-300" y="30" width="180" height="230" as="geometry" />
        </mxCell>
        <mxCell id="5BqqWERzwNXMWdmKXzrG-38" value="" style="shape=tableRow;horizontal=0;startSize=0;swimlaneHead=0;swimlaneBody=0;fillColor=light-dark(#FFFFFF,#000000);collapsible=0;dropTarget=0;points=[[0,0.5],[1,0.5]];portConstraint=eastwest;top=0;left=0;right=0;bottom=1;" parent="5BqqWERzwNXMWdmKXzrG-37" vertex="1">
          <mxGeometry y="30" width="180" height="30" as="geometry" />
        </mxCell>
        <mxCell id="5BqqWERzwNXMWdmKXzrG-39" value="PK" style="shape=partialRectangle;connectable=0;fillColor=light-dark(#FFFFFF,#000000);top=0;left=0;bottom=0;right=0;fontStyle=1;overflow=hidden;whiteSpace=wrap;html=1;" parent="5BqqWERzwNXMWdmKXzrG-38" vertex="1">
          <mxGeometry width="30" height="30" as="geometry">
            <mxRectangle width="30" height="30" as="alternateBounds" />
          </mxGeometry>
        </mxCell>
        <mxCell id="5BqqWERzwNXMWdmKXzrG-40" value="ID" style="shape=partialRectangle;connectable=0;fillColor=light-dark(#FFFFFF,#000000);top=0;left=0;bottom=0;right=0;align=left;spacingLeft=6;fontStyle=5;overflow=hidden;whiteSpace=wrap;html=1;" parent="5BqqWERzwNXMWdmKXzrG-38" vertex="1">
          <mxGeometry x="30" width="150" height="30" as="geometry">
            <mxRectangle width="150" height="30" as="alternateBounds" />
          </mxGeometry>
        </mxCell>
        <mxCell id="5BqqWERzwNXMWdmKXzrG-41" value="" style="shape=tableRow;horizontal=0;startSize=0;swimlaneHead=0;swimlaneBody=0;fillColor=light-dark(#FFFFFF,#000000);collapsible=0;dropTarget=0;points=[[0,0.5],[1,0.5]];portConstraint=eastwest;top=0;left=0;right=0;bottom=0;" parent="5BqqWERzwNXMWdmKXzrG-37" vertex="1">
          <mxGeometry y="60" width="180" height="30" as="geometry" />
        </mxCell>
        <mxCell id="5BqqWERzwNXMWdmKXzrG-42" value="FK" style="shape=partialRectangle;connectable=0;fillColor=light-dark(#FFFFFF,#000000);top=0;left=0;bottom=0;right=0;editable=1;overflow=hidden;whiteSpace=wrap;html=1;" parent="5BqqWERzwNXMWdmKXzrG-41" vertex="1">
          <mxGeometry width="30" height="30" as="geometry">
            <mxRectangle width="30" height="30" as="alternateBounds" />
          </mxGeometry>
        </mxCell>
        <mxCell id="5BqqWERzwNXMWdmKXzrG-43" value="state_id" style="shape=partialRectangle;connectable=0;fillColor=light-dark(#FFFFFF,#000000);top=0;left=0;bottom=0;right=0;align=left;spacingLeft=6;overflow=hidden;whiteSpace=wrap;html=1;" parent="5BqqWERzwNXMWdmKXzrG-41" vertex="1">
          <mxGeometry x="30" width="150" height="30" as="geometry">
            <mxRectangle width="150" height="30" as="alternateBounds" />
          </mxGeometry>
        </mxCell>
        <mxCell id="5BqqWERzwNXMWdmKXzrG-44" value="" style="shape=tableRow;horizontal=0;startSize=0;swimlaneHead=0;swimlaneBody=0;fillColor=light-dark(#FFFFFF,#000000);collapsible=0;dropTarget=0;points=[[0,0.5],[1,0.5]];portConstraint=eastwest;top=0;left=0;right=0;bottom=0;" parent="5BqqWERzwNXMWdmKXzrG-37" vertex="1">
          <mxGeometry y="90" width="180" height="30" as="geometry" />
        </mxCell>
        <mxCell id="5BqqWERzwNXMWdmKXzrG-45" value="" style="shape=partialRectangle;connectable=0;fillColor=light-dark(#FFFFFF,#000000);top=0;left=0;bottom=0;right=0;editable=1;overflow=hidden;whiteSpace=wrap;html=1;" parent="5BqqWERzwNXMWdmKXzrG-44" vertex="1">
          <mxGeometry width="30" height="30" as="geometry">
            <mxRectangle width="30" height="30" as="alternateBounds" />
          </mxGeometry>
        </mxCell>
        <mxCell id="5BqqWERzwNXMWdmKXzrG-46" value="name" style="shape=partialRectangle;connectable=0;fillColor=light-dark(#FFFFFF,#000000);top=0;left=0;bottom=0;right=0;align=left;spacingLeft=6;overflow=hidden;whiteSpace=wrap;html=1;" parent="5BqqWERzwNXMWdmKXzrG-44" vertex="1">
          <mxGeometry x="30" width="150" height="30" as="geometry">
            <mxRectangle width="150" height="30" as="alternateBounds" />
          </mxGeometry>
        </mxCell>
        <mxCell id="5BqqWERzwNXMWdmKXzrG-47" value="" style="shape=tableRow;horizontal=0;startSize=0;swimlaneHead=0;swimlaneBody=0;fillColor=light-dark(#FFFFFF,#000000);collapsible=0;dropTarget=0;points=[[0,0.5],[1,0.5]];portConstraint=eastwest;top=0;left=0;right=0;bottom=0;" parent="5BqqWERzwNXMWdmKXzrG-37" vertex="1">
          <mxGeometry y="120" width="180" height="30" as="geometry" />
        </mxCell>
        <mxCell id="5BqqWERzwNXMWdmKXzrG-48" value="" style="shape=partialRectangle;connectable=0;fillColor=light-dark(#FFFFFF,#000000);top=0;left=0;bottom=0;right=0;editable=1;overflow=hidden;whiteSpace=wrap;html=1;" parent="5BqqWERzwNXMWdmKXzrG-47" vertex="1">
          <mxGeometry width="30" height="30" as="geometry">
            <mxRectangle width="30" height="30" as="alternateBounds" />
          </mxGeometry>
        </mxCell>
        <mxCell id="5BqqWERzwNXMWdmKXzrG-49" value="age" style="shape=partialRectangle;connectable=0;fillColor=light-dark(#FFFFFF,#000000);top=0;left=0;bottom=0;right=0;align=left;spacingLeft=6;overflow=hidden;whiteSpace=wrap;html=1;" parent="5BqqWERzwNXMWdmKXzrG-47" vertex="1">
          <mxGeometry x="30" width="150" height="30" as="geometry">
            <mxRectangle width="150" height="30" as="alternateBounds" />
          </mxGeometry>
        </mxCell>
        <mxCell id="5BqqWERzwNXMWdmKXzrG-176" value="" style="shape=tableRow;horizontal=0;startSize=0;swimlaneHead=0;swimlaneBody=0;fillColor=light-dark(#FFFFFF,#000000);collapsible=0;dropTarget=0;points=[[0,0.5],[1,0.5]];portConstraint=eastwest;top=0;left=0;right=0;bottom=0;" parent="5BqqWERzwNXMWdmKXzrG-37" vertex="1">
          <mxGeometry y="150" width="180" height="20" as="geometry" />
        </mxCell>
        <mxCell id="5BqqWERzwNXMWdmKXzrG-177" value="" style="shape=partialRectangle;connectable=0;fillColor=light-dark(#FFFFFF,#000000);top=0;left=0;bottom=0;right=0;editable=1;overflow=hidden;whiteSpace=wrap;html=1;" parent="5BqqWERzwNXMWdmKXzrG-176" vertex="1">
          <mxGeometry width="30" height="20" as="geometry">
            <mxRectangle width="30" height="20" as="alternateBounds" />
          </mxGeometry>
        </mxCell>
        <mxCell id="5BqqWERzwNXMWdmKXzrG-178" value="surname" style="shape=partialRectangle;connectable=0;fillColor=light-dark(#FFFFFF,#000000);top=0;left=0;bottom=0;right=0;align=left;spacingLeft=6;overflow=hidden;whiteSpace=wrap;html=1;" parent="5BqqWERzwNXMWdmKXzrG-176" vertex="1">
          <mxGeometry x="30" width="150" height="20" as="geometry">
            <mxRectangle width="150" height="20" as="alternateBounds" />
          </mxGeometry>
        </mxCell>
        <mxCell id="5BqqWERzwNXMWdmKXzrG-182" value="" style="shape=tableRow;horizontal=0;startSize=0;swimlaneHead=0;swimlaneBody=0;fillColor=light-dark(#FFFFFF,#000000);collapsible=0;dropTarget=0;points=[[0,0.5],[1,0.5]];portConstraint=eastwest;top=0;left=0;right=0;bottom=0;" parent="5BqqWERzwNXMWdmKXzrG-37" vertex="1">
          <mxGeometry y="170" width="180" height="30" as="geometry" />
        </mxCell>
        <mxCell id="5BqqWERzwNXMWdmKXzrG-183" value="" style="shape=partialRectangle;connectable=0;fillColor=light-dark(#FFFFFF,#000000);top=0;left=0;bottom=0;right=0;editable=1;overflow=hidden;whiteSpace=wrap;html=1;" parent="5BqqWERzwNXMWdmKXzrG-182" vertex="1">
          <mxGeometry width="30" height="30" as="geometry">
            <mxRectangle width="30" height="30" as="alternateBounds" />
          </mxGeometry>
        </mxCell>
        <mxCell id="5BqqWERzwNXMWdmKXzrG-184" value="status" style="shape=partialRectangle;connectable=0;fillColor=light-dark(#FFFFFF,#000000);top=0;left=0;bottom=0;right=0;align=left;spacingLeft=6;overflow=hidden;whiteSpace=wrap;html=1;" parent="5BqqWERzwNXMWdmKXzrG-182" vertex="1">
          <mxGeometry x="30" width="150" height="30" as="geometry">
            <mxRectangle width="150" height="30" as="alternateBounds" />
          </mxGeometry>
        </mxCell>
        <mxCell id="5BqqWERzwNXMWdmKXzrG-186" value="" style="shape=tableRow;horizontal=0;startSize=0;swimlaneHead=0;swimlaneBody=0;fillColor=light-dark(#FFFFFF,#000000);collapsible=0;dropTarget=0;points=[[0,0.5],[1,0.5]];portConstraint=eastwest;top=0;left=0;right=0;bottom=0;" parent="5BqqWERzwNXMWdmKXzrG-37" vertex="1">
          <mxGeometry y="200" width="180" height="30" as="geometry" />
        </mxCell>
        <mxCell id="5BqqWERzwNXMWdmKXzrG-187" value="FK" style="shape=partialRectangle;connectable=0;fillColor=light-dark(#FFFFFF,#000000);top=0;left=0;bottom=0;right=0;editable=1;overflow=hidden;whiteSpace=wrap;html=1;" parent="5BqqWERzwNXMWdmKXzrG-186" vertex="1">
          <mxGeometry width="30" height="30" as="geometry">
            <mxRectangle width="30" height="30" as="alternateBounds" />
          </mxGeometry>
        </mxCell>
        <mxCell id="5BqqWERzwNXMWdmKXzrG-188" value="location_id" style="shape=partialRectangle;connectable=0;fillColor=light-dark(#FFFFFF,#000000);top=0;left=0;bottom=0;right=0;align=left;spacingLeft=6;overflow=hidden;whiteSpace=wrap;html=1;" parent="5BqqWERzwNXMWdmKXzrG-186" vertex="1">
          <mxGeometry x="30" width="150" height="30" as="geometry">
            <mxRectangle width="150" height="30" as="alternateBounds" />
          </mxGeometry>
        </mxCell>
        <mxCell id="5BqqWERzwNXMWdmKXzrG-81" value="Location" style="shape=table;startSize=30;container=1;collapsible=1;childLayout=tableLayout;fixedRows=1;rowLines=0;fontStyle=1;align=center;resizeLast=1;html=1;fillColor=light-dark(#FFFFFF,#000000);" parent="1" vertex="1">
          <mxGeometry x="250" y="170" width="180" height="180" as="geometry" />
        </mxCell>
        <mxCell id="5BqqWERzwNXMWdmKXzrG-82" value="" style="shape=tableRow;horizontal=0;startSize=0;swimlaneHead=0;swimlaneBody=0;fillColor=light-dark(#FFFFFF,#000000);collapsible=0;dropTarget=0;points=[[0,0.5],[1,0.5]];portConstraint=eastwest;top=0;left=0;right=0;bottom=1;" parent="5BqqWERzwNXMWdmKXzrG-81" vertex="1">
          <mxGeometry y="30" width="180" height="30" as="geometry" />
        </mxCell>
        <mxCell id="5BqqWERzwNXMWdmKXzrG-83" value="PK" style="shape=partialRectangle;connectable=0;fillColor=light-dark(#FFFFFF,#000000);top=0;left=0;bottom=0;right=0;fontStyle=1;overflow=hidden;whiteSpace=wrap;html=1;" parent="5BqqWERzwNXMWdmKXzrG-82" vertex="1">
          <mxGeometry width="30" height="30" as="geometry">
            <mxRectangle width="30" height="30" as="alternateBounds" />
          </mxGeometry>
        </mxCell>
        <mxCell id="5BqqWERzwNXMWdmKXzrG-84" value="ID" style="shape=partialRectangle;connectable=0;fillColor=light-dark(#FFFFFF,#000000);top=0;left=0;bottom=0;right=0;align=left;spacingLeft=6;fontStyle=5;overflow=hidden;whiteSpace=wrap;html=1;" parent="5BqqWERzwNXMWdmKXzrG-82" vertex="1">
          <mxGeometry x="30" width="150" height="30" as="geometry">
            <mxRectangle width="150" height="30" as="alternateBounds" />
          </mxGeometry>
        </mxCell>
        <mxCell id="5BqqWERzwNXMWdmKXzrG-85" value="" style="shape=tableRow;horizontal=0;startSize=0;swimlaneHead=0;swimlaneBody=0;fillColor=light-dark(#FFFFFF,#000000);collapsible=0;dropTarget=0;points=[[0,0.5],[1,0.5]];portConstraint=eastwest;top=0;left=0;right=0;bottom=0;" parent="5BqqWERzwNXMWdmKXzrG-81" vertex="1">
          <mxGeometry y="60" width="180" height="30" as="geometry" />
        </mxCell>
        <mxCell id="5BqqWERzwNXMWdmKXzrG-86" value="" style="shape=partialRectangle;connectable=0;fillColor=light-dark(#FFFFFF,#000000);top=0;left=0;bottom=0;right=0;editable=1;overflow=hidden;whiteSpace=wrap;html=1;" parent="5BqqWERzwNXMWdmKXzrG-85" vertex="1">
          <mxGeometry width="30" height="30" as="geometry">
            <mxRectangle width="30" height="30" as="alternateBounds" />
          </mxGeometry>
        </mxCell>
        <mxCell id="5BqqWERzwNXMWdmKXzrG-87" value="&lt;div&gt;name&lt;/div&gt;" style="shape=partialRectangle;connectable=0;fillColor=light-dark(#FFFFFF,#000000);top=0;left=0;bottom=0;right=0;align=left;spacingLeft=6;overflow=hidden;whiteSpace=wrap;html=1;" parent="5BqqWERzwNXMWdmKXzrG-85" vertex="1">
          <mxGeometry x="30" width="150" height="30" as="geometry">
            <mxRectangle width="150" height="30" as="alternateBounds" />
          </mxGeometry>
        </mxCell>
        <mxCell id="5BqqWERzwNXMWdmKXzrG-88" value="" style="shape=tableRow;horizontal=0;startSize=0;swimlaneHead=0;swimlaneBody=0;fillColor=light-dark(#FFFFFF,#000000);collapsible=0;dropTarget=0;points=[[0,0.5],[1,0.5]];portConstraint=eastwest;top=0;left=0;right=0;bottom=0;" parent="5BqqWERzwNXMWdmKXzrG-81" vertex="1">
          <mxGeometry y="90" width="180" height="30" as="geometry" />
        </mxCell>
        <mxCell id="5BqqWERzwNXMWdmKXzrG-89" value="" style="shape=partialRectangle;connectable=0;fillColor=light-dark(#FFFFFF,#000000);top=0;left=0;bottom=0;right=0;editable=1;overflow=hidden;whiteSpace=wrap;html=1;" parent="5BqqWERzwNXMWdmKXzrG-88" vertex="1">
          <mxGeometry width="30" height="30" as="geometry">
            <mxRectangle width="30" height="30" as="alternateBounds" />
          </mxGeometry>
        </mxCell>
        <mxCell id="5BqqWERzwNXMWdmKXzrG-90" value="safetly" style="shape=partialRectangle;connectable=0;fillColor=light-dark(#FFFFFF,#000000);top=0;left=0;bottom=0;right=0;align=left;spacingLeft=6;overflow=hidden;whiteSpace=wrap;html=1;" parent="5BqqWERzwNXMWdmKXzrG-88" vertex="1">
          <mxGeometry x="30" width="150" height="30" as="geometry">
            <mxRectangle width="150" height="30" as="alternateBounds" />
          </mxGeometry>
        </mxCell>
        <mxCell id="5BqqWERzwNXMWdmKXzrG-91" value="" style="shape=tableRow;horizontal=0;startSize=0;swimlaneHead=0;swimlaneBody=0;fillColor=light-dark(#FFFFFF,#000000);collapsible=0;dropTarget=0;points=[[0,0.5],[1,0.5]];portConstraint=eastwest;top=0;left=0;right=0;bottom=0;" parent="5BqqWERzwNXMWdmKXzrG-81" vertex="1">
          <mxGeometry y="120" width="180" height="30" as="geometry" />
        </mxCell>
        <mxCell id="5BqqWERzwNXMWdmKXzrG-92" value="" style="shape=partialRectangle;connectable=0;fillColor=light-dark(#FFFFFF,#000000);top=0;left=0;bottom=0;right=0;editable=1;overflow=hidden;whiteSpace=wrap;html=1;" parent="5BqqWERzwNXMWdmKXzrG-91" vertex="1">
          <mxGeometry width="30" height="30" as="geometry">
            <mxRectangle width="30" height="30" as="alternateBounds" />
          </mxGeometry>
        </mxCell>
        <mxCell id="5BqqWERzwNXMWdmKXzrG-93" value="floor" style="shape=partialRectangle;connectable=0;fillColor=light-dark(#FFFFFF,#000000);top=0;left=0;bottom=0;right=0;align=left;spacingLeft=6;overflow=hidden;whiteSpace=wrap;html=1;" parent="5BqqWERzwNXMWdmKXzrG-91" vertex="1">
          <mxGeometry x="30" width="150" height="30" as="geometry">
            <mxRectangle width="150" height="30" as="alternateBounds" />
          </mxGeometry>
        </mxCell>
        <mxCell id="5BqqWERzwNXMWdmKXzrG-159" value="" style="shape=tableRow;horizontal=0;startSize=0;swimlaneHead=0;swimlaneBody=0;fillColor=light-dark(#FFFFFF,#000000);collapsible=0;dropTarget=0;points=[[0,0.5],[1,0.5]];portConstraint=eastwest;top=0;left=0;right=0;bottom=0;" parent="5BqqWERzwNXMWdmKXzrG-81" vertex="1">
          <mxGeometry y="150" width="180" height="30" as="geometry" />
        </mxCell>
        <mxCell id="5BqqWERzwNXMWdmKXzrG-160" value="" style="shape=partialRectangle;connectable=0;fillColor=light-dark(#FFFFFF,#000000);top=0;left=0;bottom=0;right=0;editable=1;overflow=hidden;whiteSpace=wrap;html=1;" parent="5BqqWERzwNXMWdmKXzrG-159" vertex="1">
          <mxGeometry width="30" height="30" as="geometry">
            <mxRectangle width="30" height="30" as="alternateBounds" />
          </mxGeometry>
        </mxCell>
        <mxCell id="5BqqWERzwNXMWdmKXzrG-161" value="in_out" style="shape=partialRectangle;connectable=0;fillColor=light-dark(#FFFFFF,#000000);top=0;left=0;bottom=0;right=0;align=left;spacingLeft=6;overflow=hidden;whiteSpace=wrap;html=1;" parent="5BqqWERzwNXMWdmKXzrG-159" vertex="1">
          <mxGeometry x="30" width="150" height="30" as="geometry">
            <mxRectangle width="150" height="30" as="alternateBounds" />
          </mxGeometry>
        </mxCell>
        <mxCell id="5BqqWERzwNXMWdmKXzrG-95" value="" style="edgeStyle=entityRelationEdgeStyle;fontSize=12;html=1;endArrow=ERoneToMany;rounded=0;exitX=-0.009;exitY=0.075;exitDx=0;exitDy=0;exitPerimeter=0;entryX=1;entryY=0.5;entryDx=0;entryDy=0;fillColor=light-dark(#FFFFFF,#000000);" parent="1" source="5BqqWERzwNXMWdmKXzrG-81" target="5BqqWERzwNXMWdmKXzrG-176" edge="1">
          <mxGeometry width="100" height="100" relative="1" as="geometry">
            <mxPoint x="40" y="310" as="sourcePoint" />
            <mxPoint x="140" y="210" as="targetPoint" />
            <Array as="points">
              <mxPoint x="163" y="400" />
            </Array>
          </mxGeometry>
        </mxCell>
        <mxCell id="5BqqWERzwNXMWdmKXzrG-127" value="Action" style="shape=table;startSize=30;container=1;collapsible=1;childLayout=tableLayout;fixedRows=1;rowLines=0;fontStyle=1;align=center;resizeLast=1;html=1;fillColor=light-dark(#FFFFFF,#000000);" parent="1" vertex="1">
          <mxGeometry y="414" width="180" height="180" as="geometry" />
        </mxCell>
        <mxCell id="5BqqWERzwNXMWdmKXzrG-128" value="" style="shape=tableRow;horizontal=0;startSize=0;swimlaneHead=0;swimlaneBody=0;fillColor=light-dark(#FFFFFF,#000000);collapsible=0;dropTarget=0;points=[[0,0.5],[1,0.5]];portConstraint=eastwest;top=0;left=0;right=0;bottom=1;" parent="5BqqWERzwNXMWdmKXzrG-127" vertex="1">
          <mxGeometry y="30" width="180" height="30" as="geometry" />
        </mxCell>
        <mxCell id="5BqqWERzwNXMWdmKXzrG-129" value="PK" style="shape=partialRectangle;connectable=0;fillColor=light-dark(#FFFFFF,#000000);top=0;left=0;bottom=0;right=0;fontStyle=1;overflow=hidden;whiteSpace=wrap;html=1;" parent="5BqqWERzwNXMWdmKXzrG-128" vertex="1">
          <mxGeometry width="30" height="30" as="geometry">
            <mxRectangle width="30" height="30" as="alternateBounds" />
          </mxGeometry>
        </mxCell>
        <mxCell id="5BqqWERzwNXMWdmKXzrG-130" value="ID" style="shape=partialRectangle;connectable=0;fillColor=light-dark(#FFFFFF,#000000);top=0;left=0;bottom=0;right=0;align=left;spacingLeft=6;fontStyle=5;overflow=hidden;whiteSpace=wrap;html=1;" parent="5BqqWERzwNXMWdmKXzrG-128" vertex="1">
          <mxGeometry x="30" width="150" height="30" as="geometry">
            <mxRectangle width="150" height="30" as="alternateBounds" />
          </mxGeometry>
        </mxCell>
        <mxCell id="5BqqWERzwNXMWdmKXzrG-131" value="" style="shape=tableRow;horizontal=0;startSize=0;swimlaneHead=0;swimlaneBody=0;fillColor=light-dark(#FFFFFF,#000000);collapsible=0;dropTarget=0;points=[[0,0.5],[1,0.5]];portConstraint=eastwest;top=0;left=0;right=0;bottom=0;" parent="5BqqWERzwNXMWdmKXzrG-127" vertex="1">
          <mxGeometry y="60" width="180" height="30" as="geometry" />
        </mxCell>
        <mxCell id="5BqqWERzwNXMWdmKXzrG-132" value="" style="shape=partialRectangle;connectable=0;fillColor=light-dark(#FFFFFF,#000000);top=0;left=0;bottom=0;right=0;editable=1;overflow=hidden;whiteSpace=wrap;html=1;" parent="5BqqWERzwNXMWdmKXzrG-131" vertex="1">
          <mxGeometry width="30" height="30" as="geometry">
            <mxRectangle width="30" height="30" as="alternateBounds" />
          </mxGeometry>
        </mxCell>
        <mxCell id="5BqqWERzwNXMWdmKXzrG-133" value="name" style="shape=partialRectangle;connectable=0;fillColor=light-dark(#FFFFFF,#000000);top=0;left=0;bottom=0;right=0;align=left;spacingLeft=6;overflow=hidden;whiteSpace=wrap;html=1;" parent="5BqqWERzwNXMWdmKXzrG-131" vertex="1">
          <mxGeometry x="30" width="150" height="30" as="geometry">
            <mxRectangle width="150" height="30" as="alternateBounds" />
          </mxGeometry>
        </mxCell>
        <mxCell id="5BqqWERzwNXMWdmKXzrG-134" value="" style="shape=tableRow;horizontal=0;startSize=0;swimlaneHead=0;swimlaneBody=0;fillColor=light-dark(#FFFFFF,#000000);collapsible=0;dropTarget=0;points=[[0,0.5],[1,0.5]];portConstraint=eastwest;top=0;left=0;right=0;bottom=0;" parent="5BqqWERzwNXMWdmKXzrG-127" vertex="1">
          <mxGeometry y="90" width="180" height="30" as="geometry" />
        </mxCell>
        <mxCell id="5BqqWERzwNXMWdmKXzrG-135" value="" style="shape=partialRectangle;connectable=0;fillColor=light-dark(#FFFFFF,#000000);top=0;left=0;bottom=0;right=0;editable=1;overflow=hidden;whiteSpace=wrap;html=1;" parent="5BqqWERzwNXMWdmKXzrG-134" vertex="1">
          <mxGeometry width="30" height="30" as="geometry">
            <mxRectangle width="30" height="30" as="alternateBounds" />
          </mxGeometry>
        </mxCell>
        <mxCell id="5BqqWERzwNXMWdmKXzrG-136" value="location_id" style="shape=partialRectangle;connectable=0;fillColor=light-dark(#FFFFFF,#000000);top=0;left=0;bottom=0;right=0;align=left;spacingLeft=6;overflow=hidden;whiteSpace=wrap;html=1;" parent="5BqqWERzwNXMWdmKXzrG-134" vertex="1">
          <mxGeometry x="30" width="150" height="30" as="geometry">
            <mxRectangle width="150" height="30" as="alternateBounds" />
          </mxGeometry>
        </mxCell>
        <mxCell id="5BqqWERzwNXMWdmKXzrG-137" value="" style="shape=tableRow;horizontal=0;startSize=0;swimlaneHead=0;swimlaneBody=0;fillColor=light-dark(#FFFFFF,#000000);collapsible=0;dropTarget=0;points=[[0,0.5],[1,0.5]];portConstraint=eastwest;top=0;left=0;right=0;bottom=0;" parent="5BqqWERzwNXMWdmKXzrG-127" vertex="1">
          <mxGeometry y="120" width="180" height="30" as="geometry" />
        </mxCell>
        <mxCell id="5BqqWERzwNXMWdmKXzrG-138" value="" style="shape=partialRectangle;connectable=0;fillColor=light-dark(#FFFFFF,#000000);top=0;left=0;bottom=0;right=0;editable=1;overflow=hidden;whiteSpace=wrap;html=1;" parent="5BqqWERzwNXMWdmKXzrG-137" vertex="1">
          <mxGeometry width="30" height="30" as="geometry">
            <mxRectangle width="30" height="30" as="alternateBounds" />
          </mxGeometry>
        </mxCell>
        <mxCell id="5BqqWERzwNXMWdmKXzrG-139" value="time" style="shape=partialRectangle;connectable=0;fillColor=light-dark(#FFFFFF,#000000);top=0;left=0;bottom=0;right=0;align=left;spacingLeft=6;overflow=hidden;whiteSpace=wrap;html=1;" parent="5BqqWERzwNXMWdmKXzrG-137" vertex="1">
          <mxGeometry x="30" width="150" height="30" as="geometry">
            <mxRectangle width="150" height="30" as="alternateBounds" />
          </mxGeometry>
        </mxCell>
        <mxCell id="5BqqWERzwNXMWdmKXzrG-140" value="" style="shape=tableRow;horizontal=0;startSize=0;swimlaneHead=0;swimlaneBody=0;fillColor=light-dark(#FFFFFF,#000000);collapsible=0;dropTarget=0;points=[[0,0.5],[1,0.5]];portConstraint=eastwest;top=0;left=0;right=0;bottom=0;" parent="5BqqWERzwNXMWdmKXzrG-127" vertex="1">
          <mxGeometry y="150" width="180" height="30" as="geometry" />
        </mxCell>
        <mxCell id="5BqqWERzwNXMWdmKXzrG-141" value="" style="shape=partialRectangle;connectable=0;fillColor=light-dark(#FFFFFF,#000000);top=0;left=0;bottom=0;right=0;editable=1;overflow=hidden;whiteSpace=wrap;html=1;" parent="5BqqWERzwNXMWdmKXzrG-140" vertex="1">
          <mxGeometry width="30" height="30" as="geometry">
            <mxRectangle width="30" height="30" as="alternateBounds" />
          </mxGeometry>
        </mxCell>
        <mxCell id="5BqqWERzwNXMWdmKXzrG-142" value="safety" style="shape=partialRectangle;connectable=0;fillColor=light-dark(#FFFFFF,#000000);top=0;left=0;bottom=0;right=0;align=left;spacingLeft=6;overflow=hidden;whiteSpace=wrap;html=1;" parent="5BqqWERzwNXMWdmKXzrG-140" vertex="1">
          <mxGeometry x="30" width="150" height="30" as="geometry">
            <mxRectangle width="150" height="30" as="alternateBounds" />
          </mxGeometry>
        </mxCell>
        <mxCell id="5BqqWERzwNXMWdmKXzrG-144" value="State" style="shape=table;startSize=30;container=1;collapsible=1;childLayout=tableLayout;fixedRows=1;rowLines=0;fontStyle=1;align=center;resizeLast=1;html=1;fillColor=light-dark(#FFFFFF,#000000);" parent="1" vertex="1">
          <mxGeometry y="-150" width="180" height="130" as="geometry" />
        </mxCell>
        <mxCell id="5BqqWERzwNXMWdmKXzrG-145" value="" style="shape=tableRow;horizontal=0;startSize=0;swimlaneHead=0;swimlaneBody=0;fillColor=light-dark(#FFFFFF,#000000);collapsible=0;dropTarget=0;points=[[0,0.5],[1,0.5]];portConstraint=eastwest;top=0;left=0;right=0;bottom=1;" parent="5BqqWERzwNXMWdmKXzrG-144" vertex="1">
          <mxGeometry y="30" width="180" height="30" as="geometry" />
        </mxCell>
        <mxCell id="5BqqWERzwNXMWdmKXzrG-146" value="PK" style="shape=partialRectangle;connectable=0;fillColor=light-dark(#FFFFFF,#000000);top=0;left=0;bottom=0;right=0;fontStyle=1;overflow=hidden;whiteSpace=wrap;html=1;" parent="5BqqWERzwNXMWdmKXzrG-145" vertex="1">
          <mxGeometry width="30" height="30" as="geometry">
            <mxRectangle width="30" height="30" as="alternateBounds" />
          </mxGeometry>
        </mxCell>
        <mxCell id="5BqqWERzwNXMWdmKXzrG-147" value="ID" style="shape=partialRectangle;connectable=0;fillColor=light-dark(#FFFFFF,#000000);top=0;left=0;bottom=0;right=0;align=left;spacingLeft=6;fontStyle=5;overflow=hidden;whiteSpace=wrap;html=1;" parent="5BqqWERzwNXMWdmKXzrG-145" vertex="1">
          <mxGeometry x="30" width="150" height="30" as="geometry">
            <mxRectangle width="150" height="30" as="alternateBounds" />
          </mxGeometry>
        </mxCell>
        <mxCell id="5BqqWERzwNXMWdmKXzrG-148" value="" style="shape=tableRow;horizontal=0;startSize=0;swimlaneHead=0;swimlaneBody=0;fillColor=light-dark(#FFFFFF,#000000);collapsible=0;dropTarget=0;points=[[0,0.5],[1,0.5]];portConstraint=eastwest;top=0;left=0;right=0;bottom=0;" parent="5BqqWERzwNXMWdmKXzrG-144" vertex="1">
          <mxGeometry y="60" width="180" height="20" as="geometry" />
        </mxCell>
        <mxCell id="5BqqWERzwNXMWdmKXzrG-149" value="" style="shape=partialRectangle;connectable=0;fillColor=light-dark(#FFFFFF,#000000);top=0;left=0;bottom=0;right=0;editable=1;overflow=hidden;whiteSpace=wrap;html=1;" parent="5BqqWERzwNXMWdmKXzrG-148" vertex="1">
          <mxGeometry width="30" height="20" as="geometry">
            <mxRectangle width="30" height="20" as="alternateBounds" />
          </mxGeometry>
        </mxCell>
        <mxCell id="5BqqWERzwNXMWdmKXzrG-150" value="name&lt;div&gt;&lt;br&gt;&lt;/div&gt;" style="shape=partialRectangle;connectable=0;fillColor=light-dark(#FFFFFF,#000000);top=0;left=0;bottom=0;right=0;align=left;spacingLeft=6;overflow=hidden;whiteSpace=wrap;html=1;" parent="5BqqWERzwNXMWdmKXzrG-148" vertex="1">
          <mxGeometry x="30" width="150" height="20" as="geometry">
            <mxRectangle width="150" height="20" as="alternateBounds" />
          </mxGeometry>
        </mxCell>
        <mxCell id="5BqqWERzwNXMWdmKXzrG-151" value="" style="shape=tableRow;horizontal=0;startSize=0;swimlaneHead=0;swimlaneBody=0;fillColor=light-dark(#FFFFFF,#000000);collapsible=0;dropTarget=0;points=[[0,0.5],[1,0.5]];portConstraint=eastwest;top=0;left=0;right=0;bottom=0;" parent="5BqqWERzwNXMWdmKXzrG-144" vertex="1">
          <mxGeometry y="80" width="180" height="20" as="geometry" />
        </mxCell>
        <mxCell id="5BqqWERzwNXMWdmKXzrG-152" value="" style="shape=partialRectangle;connectable=0;fillColor=light-dark(#FFFFFF,#000000);top=0;left=0;bottom=0;right=0;editable=1;overflow=hidden;whiteSpace=wrap;html=1;" parent="5BqqWERzwNXMWdmKXzrG-151" vertex="1">
          <mxGeometry width="30" height="20" as="geometry">
            <mxRectangle width="30" height="20" as="alternateBounds" />
          </mxGeometry>
        </mxCell>
        <mxCell id="5BqqWERzwNXMWdmKXzrG-153" value="Length" style="shape=partialRectangle;connectable=0;fillColor=light-dark(#FFFFFF,#000000);top=0;left=0;bottom=0;right=0;align=left;spacingLeft=6;overflow=hidden;whiteSpace=wrap;html=1;" parent="5BqqWERzwNXMWdmKXzrG-151" vertex="1">
          <mxGeometry x="30" width="150" height="20" as="geometry">
            <mxRectangle width="150" height="20" as="alternateBounds" />
          </mxGeometry>
        </mxCell>
        <mxCell id="5BqqWERzwNXMWdmKXzrG-154" value="" style="shape=tableRow;horizontal=0;startSize=0;swimlaneHead=0;swimlaneBody=0;fillColor=light-dark(#FFFFFF,#000000);collapsible=0;dropTarget=0;points=[[0,0.5],[1,0.5]];portConstraint=eastwest;top=0;left=0;right=0;bottom=0;" parent="5BqqWERzwNXMWdmKXzrG-144" vertex="1">
          <mxGeometry y="100" width="180" height="30" as="geometry" />
        </mxCell>
        <mxCell id="5BqqWERzwNXMWdmKXzrG-155" value="" style="shape=partialRectangle;connectable=0;fillColor=light-dark(#FFFFFF,#000000);top=0;left=0;bottom=0;right=0;editable=1;overflow=hidden;whiteSpace=wrap;html=1;" parent="5BqqWERzwNXMWdmKXzrG-154" vertex="1">
          <mxGeometry width="30" height="30" as="geometry">
            <mxRectangle width="30" height="30" as="alternateBounds" />
          </mxGeometry>
        </mxCell>
        <mxCell id="5BqqWERzwNXMWdmKXzrG-156" value="Effect" style="shape=partialRectangle;connectable=0;fillColor=light-dark(#FFFFFF,#000000);top=0;left=0;bottom=0;right=0;align=left;spacingLeft=6;overflow=hidden;whiteSpace=wrap;html=1;" parent="5BqqWERzwNXMWdmKXzrG-154" vertex="1">
          <mxGeometry x="30" width="150" height="30" as="geometry">
            <mxRectangle width="150" height="30" as="alternateBounds" />
          </mxGeometry>
        </mxCell>
        <mxCell id="5BqqWERzwNXMWdmKXzrG-175" value="" style="edgeStyle=entityRelationEdgeStyle;fontSize=12;html=1;endArrow=ERmandOne;startArrow=ERmandOne;rounded=0;exitX=1;exitY=0.5;exitDx=0;exitDy=0;entryX=0;entryY=0.5;entryDx=0;entryDy=0;fillColor=light-dark(#FFFFFF,#000000);" parent="1" source="5BqqWERzwNXMWdmKXzrG-41" target="5BqqWERzwNXMWdmKXzrG-145" edge="1">
          <mxGeometry width="100" height="100" relative="1" as="geometry">
            <mxPoint x="90" y="330" as="sourcePoint" />
            <mxPoint x="50" y="105" as="targetPoint" />
          </mxGeometry>
        </mxCell>
        <mxCell id="5BqqWERzwNXMWdmKXzrG-64" value="" style="edgeStyle=entityRelationEdgeStyle;fontSize=12;html=1;endArrow=ERmany;startArrow=ERmany;rounded=0;exitX=1;exitY=0.5;exitDx=0;exitDy=0;entryX=0;entryY=0.1;entryDx=0;entryDy=0;entryPerimeter=0;fillColor=light-dark(#FFFFFF,#000000);" parent="1" target="5BqqWERzwNXMWdmKXzrG-68" edge="1">
          <mxGeometry width="100" height="100" relative="1" as="geometry">
            <mxPoint x="-120.00000000000045" y="215" as="sourcePoint" />
            <mxPoint x="-100" y="430" as="targetPoint" />
            <Array as="points">
              <mxPoint x="-357.15999999999997" y="380" />
              <mxPoint x="-50" y="250" />
              <mxPoint x="-40" y="260" />
              <mxPoint x="-472.15999999999997" y="340" />
              <mxPoint x="-357.15999999999997" y="400" />
              <mxPoint x="-297.15999999999997" y="350" />
            </Array>
          </mxGeometry>
        </mxCell>
        <mxCell id="5BqqWERzwNXMWdmKXzrG-212" value="" style="edgeStyle=entityRelationEdgeStyle;fontSize=12;html=1;endArrow=ERmany;startArrow=ERmany;rounded=0;entryX=0;entryY=0.5;entryDx=0;entryDy=0;exitX=1;exitY=0.5;exitDx=0;exitDy=0;fillColor=light-dark(#FFFFFF,#000000);" parent="1" source="5BqqWERzwNXMWdmKXzrG-47" target="EKDiO9YUNdJGLWvZ-4pt-12" edge="1">
          <mxGeometry width="100" height="100" relative="1" as="geometry">
            <mxPoint x="120" y="340" as="sourcePoint" />
            <mxPoint y="155" as="targetPoint" />
          </mxGeometry>
        </mxCell>
        <mxCell id="t1I_cCklPzz5QePTg-kf-1" value="Имя str&lt;div&gt;Фамилия str&lt;div&gt;Возраст int&amp;gt;0&lt;/div&gt;&lt;div&gt;Состояние int&lt;/div&gt;&lt;/div&gt;&lt;div&gt;работа int&lt;/div&gt;&lt;div&gt;статус Студент/Учитель&lt;/div&gt;&lt;div&gt;локация int&lt;/div&gt;&lt;div&gt;действие int&lt;/div&gt;&lt;div&gt;&lt;br&gt;&lt;/div&gt;" style="shape=note;size=20;whiteSpace=wrap;html=1;" parent="1" vertex="1">
          <mxGeometry x="-260" y="760" width="140" height="140" as="geometry" />
        </mxCell>
        <mxCell id="t1I_cCklPzz5QePTg-kf-2" value="Состояние&lt;div&gt;id&lt;br&gt;&lt;div&gt;название&lt;/div&gt;&lt;div&gt;продолжительность&lt;/div&gt;&lt;div&gt;эффект&lt;/div&gt;&lt;/div&gt;" style="shape=note;size=20;whiteSpace=wrap;html=1;" parent="1" vertex="1">
          <mxGeometry x="25" y="770" width="150" height="120" as="geometry" />
        </mxCell>
        <mxCell id="t1I_cCklPzz5QePTg-kf-3" value="Note" style="shape=note;size=20;whiteSpace=wrap;html=1;" parent="1" vertex="1">
          <mxGeometry x="320" y="770" width="100" height="100" as="geometry" />
        </mxCell>
        <mxCell id="5BqqWERzwNXMWdmKXzrG-68" value="work" style="shape=table;startSize=30;container=1;collapsible=1;childLayout=tableLayout;fixedRows=1;rowLines=0;fontStyle=1;align=center;resizeLast=1;html=1;fillColor=light-dark(#FFFFFF,#000000);" parent="1" vertex="1">
          <mxGeometry y="200" width="180" height="200" as="geometry" />
        </mxCell>
        <mxCell id="5BqqWERzwNXMWdmKXzrG-69" value="" style="shape=tableRow;horizontal=0;startSize=0;swimlaneHead=0;swimlaneBody=0;fillColor=light-dark(#FFFFFF,#000000);collapsible=0;dropTarget=0;points=[[0,0.5],[1,0.5]];portConstraint=eastwest;top=0;left=0;right=0;bottom=1;" parent="5BqqWERzwNXMWdmKXzrG-68" vertex="1">
          <mxGeometry y="30" width="180" height="30" as="geometry" />
        </mxCell>
        <mxCell id="5BqqWERzwNXMWdmKXzrG-70" value="PK" style="shape=partialRectangle;connectable=0;fillColor=light-dark(#FFFFFF,#000000);top=0;left=0;bottom=0;right=0;fontStyle=1;overflow=hidden;whiteSpace=wrap;html=1;" parent="5BqqWERzwNXMWdmKXzrG-69" vertex="1">
          <mxGeometry width="30" height="30" as="geometry">
            <mxRectangle width="30" height="30" as="alternateBounds" />
          </mxGeometry>
        </mxCell>
        <mxCell id="5BqqWERzwNXMWdmKXzrG-71" value="ID" style="shape=partialRectangle;connectable=0;fillColor=light-dark(#FFFFFF,#000000);top=0;left=0;bottom=0;right=0;align=left;spacingLeft=6;fontStyle=5;overflow=hidden;whiteSpace=wrap;html=1;" parent="5BqqWERzwNXMWdmKXzrG-69" vertex="1">
          <mxGeometry x="30" width="150" height="30" as="geometry">
            <mxRectangle width="150" height="30" as="alternateBounds" />
          </mxGeometry>
        </mxCell>
        <mxCell id="5BqqWERzwNXMWdmKXzrG-72" value="" style="shape=tableRow;horizontal=0;startSize=0;swimlaneHead=0;swimlaneBody=0;fillColor=light-dark(#FFFFFF,#000000);collapsible=0;dropTarget=0;points=[[0,0.5],[1,0.5]];portConstraint=eastwest;top=0;left=0;right=0;bottom=0;" parent="5BqqWERzwNXMWdmKXzrG-68" vertex="1">
          <mxGeometry y="60" width="180" height="30" as="geometry" />
        </mxCell>
        <mxCell id="5BqqWERzwNXMWdmKXzrG-73" value="" style="shape=partialRectangle;connectable=0;fillColor=light-dark(#FFFFFF,#000000);top=0;left=0;bottom=0;right=0;editable=1;overflow=hidden;whiteSpace=wrap;html=1;" parent="5BqqWERzwNXMWdmKXzrG-72" vertex="1">
          <mxGeometry width="30" height="30" as="geometry">
            <mxRectangle width="30" height="30" as="alternateBounds" />
          </mxGeometry>
        </mxCell>
        <mxCell id="5BqqWERzwNXMWdmKXzrG-74" value="&lt;div&gt;&lt;span style=&quot;background-color: initial;&quot;&gt;start_time&lt;/span&gt;&lt;/div&gt;" style="shape=partialRectangle;connectable=0;fillColor=light-dark(#FFFFFF,#000000);top=0;left=0;bottom=0;right=0;align=left;spacingLeft=6;overflow=hidden;whiteSpace=wrap;html=1;" parent="5BqqWERzwNXMWdmKXzrG-72" vertex="1">
          <mxGeometry x="30" width="150" height="30" as="geometry">
            <mxRectangle width="150" height="30" as="alternateBounds" />
          </mxGeometry>
        </mxCell>
        <mxCell id="5BqqWERzwNXMWdmKXzrG-75" value="" style="shape=tableRow;horizontal=0;startSize=0;swimlaneHead=0;swimlaneBody=0;fillColor=light-dark(#FFFFFF,#000000);collapsible=0;dropTarget=0;points=[[0,0.5],[1,0.5]];portConstraint=eastwest;top=0;left=0;right=0;bottom=0;" parent="5BqqWERzwNXMWdmKXzrG-68" vertex="1">
          <mxGeometry y="90" width="180" height="30" as="geometry" />
        </mxCell>
        <mxCell id="5BqqWERzwNXMWdmKXzrG-76" value="" style="shape=partialRectangle;connectable=0;fillColor=light-dark(#FFFFFF,#000000);top=0;left=0;bottom=0;right=0;editable=1;overflow=hidden;whiteSpace=wrap;html=1;" parent="5BqqWERzwNXMWdmKXzrG-75" vertex="1">
          <mxGeometry width="30" height="30" as="geometry">
            <mxRectangle width="30" height="30" as="alternateBounds" />
          </mxGeometry>
        </mxCell>
        <mxCell id="5BqqWERzwNXMWdmKXzrG-77" value="salary&amp;nbsp;" style="shape=partialRectangle;connectable=0;fillColor=light-dark(#FFFFFF,#000000);top=0;left=0;bottom=0;right=0;align=left;spacingLeft=6;overflow=hidden;whiteSpace=wrap;html=1;" parent="5BqqWERzwNXMWdmKXzrG-75" vertex="1">
          <mxGeometry x="30" width="150" height="30" as="geometry">
            <mxRectangle width="150" height="30" as="alternateBounds" />
          </mxGeometry>
        </mxCell>
        <mxCell id="5BqqWERzwNXMWdmKXzrG-78" value="" style="shape=tableRow;horizontal=0;startSize=0;swimlaneHead=0;swimlaneBody=0;fillColor=light-dark(#FFFFFF,#000000);collapsible=0;dropTarget=0;points=[[0,0.5],[1,0.5]];portConstraint=eastwest;top=0;left=0;right=0;bottom=0;" parent="5BqqWERzwNXMWdmKXzrG-68" vertex="1">
          <mxGeometry y="120" width="180" height="20" as="geometry" />
        </mxCell>
        <mxCell id="5BqqWERzwNXMWdmKXzrG-79" value="" style="shape=partialRectangle;connectable=0;fillColor=light-dark(#FFFFFF,#000000);top=0;left=0;bottom=0;right=0;editable=1;overflow=hidden;whiteSpace=wrap;html=1;" parent="5BqqWERzwNXMWdmKXzrG-78" vertex="1">
          <mxGeometry width="30" height="20" as="geometry">
            <mxRectangle width="30" height="20" as="alternateBounds" />
          </mxGeometry>
        </mxCell>
        <mxCell id="5BqqWERzwNXMWdmKXzrG-80" value="capasity" style="shape=partialRectangle;connectable=0;fillColor=light-dark(#FFFFFF,#000000);top=0;left=0;bottom=0;right=0;align=left;spacingLeft=6;overflow=hidden;whiteSpace=wrap;html=1;" parent="5BqqWERzwNXMWdmKXzrG-78" vertex="1">
          <mxGeometry x="30" width="150" height="20" as="geometry">
            <mxRectangle width="150" height="20" as="alternateBounds" />
          </mxGeometry>
        </mxCell>
        <mxCell id="c9jh2oVVF1-GprEwR0dj-4" value="" style="shape=tableRow;horizontal=0;startSize=0;swimlaneHead=0;swimlaneBody=0;fillColor=light-dark(#FFFFFF,#000000);collapsible=0;dropTarget=0;points=[[0,0.5],[1,0.5]];portConstraint=eastwest;top=0;left=0;right=0;bottom=0;" parent="5BqqWERzwNXMWdmKXzrG-68" vertex="1">
          <mxGeometry y="140" width="180" height="30" as="geometry" />
        </mxCell>
        <mxCell id="c9jh2oVVF1-GprEwR0dj-5" value="FK" style="shape=partialRectangle;connectable=0;fillColor=light-dark(#FFFFFF,#000000);top=0;left=0;bottom=0;right=0;editable=1;overflow=hidden;whiteSpace=wrap;html=1;" parent="c9jh2oVVF1-GprEwR0dj-4" vertex="1">
          <mxGeometry width="30" height="30" as="geometry">
            <mxRectangle width="30" height="30" as="alternateBounds" />
          </mxGeometry>
        </mxCell>
        <mxCell id="c9jh2oVVF1-GprEwR0dj-6" value="location_id" style="shape=partialRectangle;connectable=0;fillColor=light-dark(#FFFFFF,#000000);top=0;left=0;bottom=0;right=0;align=left;spacingLeft=6;overflow=hidden;whiteSpace=wrap;html=1;" parent="c9jh2oVVF1-GprEwR0dj-4" vertex="1">
          <mxGeometry x="30" width="150" height="30" as="geometry">
            <mxRectangle width="150" height="30" as="alternateBounds" />
          </mxGeometry>
        </mxCell>
        <mxCell id="c9jh2oVVF1-GprEwR0dj-7" value="" style="shape=tableRow;horizontal=0;startSize=0;swimlaneHead=0;swimlaneBody=0;fillColor=light-dark(#FFFFFF,#000000);collapsible=0;dropTarget=0;points=[[0,0.5],[1,0.5]];portConstraint=eastwest;top=0;left=0;right=0;bottom=0;" parent="5BqqWERzwNXMWdmKXzrG-68" vertex="1">
          <mxGeometry y="170" width="180" height="30" as="geometry" />
        </mxCell>
        <mxCell id="c9jh2oVVF1-GprEwR0dj-8" value="" style="shape=partialRectangle;connectable=0;fillColor=light-dark(#FFFFFF,#000000);top=0;left=0;bottom=0;right=0;editable=1;overflow=hidden;whiteSpace=wrap;html=1;" parent="c9jh2oVVF1-GprEwR0dj-7" vertex="1">
          <mxGeometry width="30" height="30" as="geometry">
            <mxRectangle width="30" height="30" as="alternateBounds" />
          </mxGeometry>
        </mxCell>
        <mxCell id="c9jh2oVVF1-GprEwR0dj-9" value="finish_time" style="shape=partialRectangle;connectable=0;fillColor=light-dark(#FFFFFF,#000000);top=0;left=0;bottom=0;right=0;align=left;spacingLeft=6;overflow=hidden;whiteSpace=wrap;html=1;" parent="c9jh2oVVF1-GprEwR0dj-7" vertex="1">
          <mxGeometry x="30" width="150" height="30" as="geometry">
            <mxRectangle width="150" height="30" as="alternateBounds" />
          </mxGeometry>
        </mxCell>
        <mxCell id="c9jh2oVVF1-GprEwR0dj-17" value="People" style="shape=table;startSize=30;container=1;collapsible=1;childLayout=tableLayout;fixedRows=1;rowLines=0;fontStyle=1;align=center;resizeLast=1;html=1;fillColor=light-dark(#FFFFFF,#000000);" parent="1" vertex="1">
          <mxGeometry x="460" y="50" width="220" height="230" as="geometry" />
        </mxCell>
        <mxCell id="c9jh2oVVF1-GprEwR0dj-18" value="" style="shape=tableRow;horizontal=0;startSize=0;swimlaneHead=0;swimlaneBody=0;fillColor=light-dark(#FFFFFF,#000000);collapsible=0;dropTarget=0;points=[[0,0.5],[1,0.5]];portConstraint=eastwest;top=0;left=0;right=0;bottom=1;" parent="c9jh2oVVF1-GprEwR0dj-17" vertex="1">
          <mxGeometry y="30" width="220" height="30" as="geometry" />
        </mxCell>
        <mxCell id="c9jh2oVVF1-GprEwR0dj-19" value="PK" style="shape=partialRectangle;connectable=0;fillColor=light-dark(#FFFFFF,#000000);top=0;left=0;bottom=0;right=0;fontStyle=1;overflow=hidden;whiteSpace=wrap;html=1;" parent="c9jh2oVVF1-GprEwR0dj-18" vertex="1">
          <mxGeometry width="30" height="30" as="geometry">
            <mxRectangle width="30" height="30" as="alternateBounds" />
          </mxGeometry>
        </mxCell>
        <mxCell id="c9jh2oVVF1-GprEwR0dj-20" value="&lt;span style=&quot;color: rgb(0, 0, 0); font-family: Helvetica; font-size: 12px; font-style: normal; font-variant-ligatures: normal; font-variant-caps: normal; font-weight: 700; letter-spacing: normal; orphans: 2; text-align: left; text-indent: 0px; text-transform: none; widows: 2; word-spacing: 0px; -webkit-text-stroke-width: 0px; white-space: normal; background-color: rgb(251, 251, 251); text-decoration: underline; display: inline !important; float: none;&quot;&gt;ID integer&lt;/span&gt;" style="shape=partialRectangle;connectable=0;fillColor=light-dark(#FFFFFF,#000000);top=0;left=0;bottom=0;right=0;align=left;spacingLeft=6;fontStyle=5;overflow=hidden;whiteSpace=wrap;html=1;" parent="c9jh2oVVF1-GprEwR0dj-18" vertex="1">
          <mxGeometry x="30" width="190" height="30" as="geometry">
            <mxRectangle width="190" height="30" as="alternateBounds" />
          </mxGeometry>
        </mxCell>
        <mxCell id="c9jh2oVVF1-GprEwR0dj-21" value="" style="shape=tableRow;horizontal=0;startSize=0;swimlaneHead=0;swimlaneBody=0;fillColor=light-dark(#FFFFFF,#000000);collapsible=0;dropTarget=0;points=[[0,0.5],[1,0.5]];portConstraint=eastwest;top=0;left=0;right=0;bottom=0;" parent="c9jh2oVVF1-GprEwR0dj-17" vertex="1">
          <mxGeometry y="60" width="220" height="30" as="geometry" />
        </mxCell>
        <mxCell id="c9jh2oVVF1-GprEwR0dj-22" value="FK" style="shape=partialRectangle;connectable=0;fillColor=light-dark(#FFFFFF,#000000);top=0;left=0;bottom=0;right=0;editable=1;overflow=hidden;whiteSpace=wrap;html=1;" parent="c9jh2oVVF1-GprEwR0dj-21" vertex="1">
          <mxGeometry width="30" height="30" as="geometry">
            <mxRectangle width="30" height="30" as="alternateBounds" />
          </mxGeometry>
        </mxCell>
        <mxCell id="c9jh2oVVF1-GprEwR0dj-23" value="state_id (integer) NOT NULL" style="shape=partialRectangle;connectable=0;fillColor=light-dark(#FFFFFF,#000000);top=0;left=0;bottom=0;right=0;align=left;spacingLeft=6;overflow=hidden;whiteSpace=wrap;html=1;" parent="c9jh2oVVF1-GprEwR0dj-21" vertex="1">
          <mxGeometry x="30" width="190" height="30" as="geometry">
            <mxRectangle width="190" height="30" as="alternateBounds" />
          </mxGeometry>
        </mxCell>
        <mxCell id="c9jh2oVVF1-GprEwR0dj-24" value="" style="shape=tableRow;horizontal=0;startSize=0;swimlaneHead=0;swimlaneBody=0;fillColor=light-dark(#FFFFFF,#000000);collapsible=0;dropTarget=0;points=[[0,0.5],[1,0.5]];portConstraint=eastwest;top=0;left=0;right=0;bottom=0;" parent="c9jh2oVVF1-GprEwR0dj-17" vertex="1">
          <mxGeometry y="90" width="220" height="30" as="geometry" />
        </mxCell>
        <mxCell id="c9jh2oVVF1-GprEwR0dj-25" value="" style="shape=partialRectangle;connectable=0;fillColor=light-dark(#FFFFFF,#000000);top=0;left=0;bottom=0;right=0;editable=1;overflow=hidden;whiteSpace=wrap;html=1;" parent="c9jh2oVVF1-GprEwR0dj-24" vertex="1">
          <mxGeometry width="30" height="30" as="geometry">
            <mxRectangle width="30" height="30" as="alternateBounds" />
          </mxGeometry>
        </mxCell>
        <mxCell id="c9jh2oVVF1-GprEwR0dj-26" value="name (varchar(20))" style="shape=partialRectangle;connectable=0;fillColor=light-dark(#FFFFFF,#000000);top=0;left=0;bottom=0;right=0;align=left;spacingLeft=6;overflow=hidden;whiteSpace=wrap;html=1;" parent="c9jh2oVVF1-GprEwR0dj-24" vertex="1">
          <mxGeometry x="30" width="190" height="30" as="geometry">
            <mxRectangle width="190" height="30" as="alternateBounds" />
          </mxGeometry>
        </mxCell>
        <mxCell id="c9jh2oVVF1-GprEwR0dj-27" value="" style="shape=tableRow;horizontal=0;startSize=0;swimlaneHead=0;swimlaneBody=0;fillColor=light-dark(#FFFFFF,#000000);collapsible=0;dropTarget=0;points=[[0,0.5],[1,0.5]];portConstraint=eastwest;top=0;left=0;right=0;bottom=0;" parent="c9jh2oVVF1-GprEwR0dj-17" vertex="1">
          <mxGeometry y="120" width="220" height="30" as="geometry" />
        </mxCell>
        <mxCell id="c9jh2oVVF1-GprEwR0dj-28" value="" style="shape=partialRectangle;connectable=0;fillColor=light-dark(#FFFFFF,#000000);top=0;left=0;bottom=0;right=0;editable=1;overflow=hidden;whiteSpace=wrap;html=1;" parent="c9jh2oVVF1-GprEwR0dj-27" vertex="1">
          <mxGeometry width="30" height="30" as="geometry">
            <mxRectangle width="30" height="30" as="alternateBounds" />
          </mxGeometry>
        </mxCell>
        <mxCell id="c9jh2oVVF1-GprEwR0dj-29" value="age smallint&amp;gt;0&amp;nbsp;" style="shape=partialRectangle;connectable=0;fillColor=light-dark(#FFFFFF,#000000);top=0;left=0;bottom=0;right=0;align=left;spacingLeft=6;overflow=hidden;whiteSpace=wrap;html=1;" parent="c9jh2oVVF1-GprEwR0dj-27" vertex="1">
          <mxGeometry x="30" width="190" height="30" as="geometry">
            <mxRectangle width="190" height="30" as="alternateBounds" />
          </mxGeometry>
        </mxCell>
        <mxCell id="c9jh2oVVF1-GprEwR0dj-30" value="" style="shape=tableRow;horizontal=0;startSize=0;swimlaneHead=0;swimlaneBody=0;fillColor=light-dark(#FFFFFF,#000000);collapsible=0;dropTarget=0;points=[[0,0.5],[1,0.5]];portConstraint=eastwest;top=0;left=0;right=0;bottom=0;" parent="c9jh2oVVF1-GprEwR0dj-17" vertex="1">
          <mxGeometry y="150" width="220" height="20" as="geometry" />
        </mxCell>
        <mxCell id="c9jh2oVVF1-GprEwR0dj-31" value="" style="shape=partialRectangle;connectable=0;fillColor=light-dark(#FFFFFF,#000000);top=0;left=0;bottom=0;right=0;editable=1;overflow=hidden;whiteSpace=wrap;html=1;" parent="c9jh2oVVF1-GprEwR0dj-30" vertex="1">
          <mxGeometry width="30" height="20" as="geometry">
            <mxRectangle width="30" height="20" as="alternateBounds" />
          </mxGeometry>
        </mxCell>
        <mxCell id="c9jh2oVVF1-GprEwR0dj-32" value="surname (varchar(20))" style="shape=partialRectangle;connectable=0;fillColor=light-dark(#FFFFFF,#000000);top=0;left=0;bottom=0;right=0;align=left;spacingLeft=6;overflow=hidden;whiteSpace=wrap;html=1;" parent="c9jh2oVVF1-GprEwR0dj-30" vertex="1">
          <mxGeometry x="30" width="190" height="20" as="geometry">
            <mxRectangle width="190" height="20" as="alternateBounds" />
          </mxGeometry>
        </mxCell>
        <mxCell id="c9jh2oVVF1-GprEwR0dj-36" value="" style="shape=tableRow;horizontal=0;startSize=0;swimlaneHead=0;swimlaneBody=0;fillColor=light-dark(#FFFFFF,#000000);collapsible=0;dropTarget=0;points=[[0,0.5],[1,0.5]];portConstraint=eastwest;top=0;left=0;right=0;bottom=0;" parent="c9jh2oVVF1-GprEwR0dj-17" vertex="1">
          <mxGeometry y="170" width="220" height="30" as="geometry" />
        </mxCell>
        <mxCell id="c9jh2oVVF1-GprEwR0dj-37" value="" style="shape=partialRectangle;connectable=0;fillColor=light-dark(#FFFFFF,#000000);top=0;left=0;bottom=0;right=0;editable=1;overflow=hidden;whiteSpace=wrap;html=1;" parent="c9jh2oVVF1-GprEwR0dj-36" vertex="1">
          <mxGeometry width="30" height="30" as="geometry">
            <mxRectangle width="30" height="30" as="alternateBounds" />
          </mxGeometry>
        </mxCell>
        <mxCell id="c9jh2oVVF1-GprEwR0dj-38" value="status status" style="shape=partialRectangle;connectable=0;fillColor=light-dark(#FFFFFF,#000000);top=0;left=0;bottom=0;right=0;align=left;spacingLeft=6;overflow=hidden;whiteSpace=wrap;html=1;" parent="c9jh2oVVF1-GprEwR0dj-36" vertex="1">
          <mxGeometry x="30" width="190" height="30" as="geometry">
            <mxRectangle width="190" height="30" as="alternateBounds" />
          </mxGeometry>
        </mxCell>
        <mxCell id="c9jh2oVVF1-GprEwR0dj-39" value="" style="shape=tableRow;horizontal=0;startSize=0;swimlaneHead=0;swimlaneBody=0;fillColor=light-dark(#FFFFFF,#000000);collapsible=0;dropTarget=0;points=[[0,0.5],[1,0.5]];portConstraint=eastwest;top=0;left=0;right=0;bottom=0;" parent="c9jh2oVVF1-GprEwR0dj-17" vertex="1">
          <mxGeometry y="200" width="220" height="30" as="geometry" />
        </mxCell>
        <mxCell id="c9jh2oVVF1-GprEwR0dj-40" value="FK" style="shape=partialRectangle;connectable=0;fillColor=light-dark(#FFFFFF,#000000);top=0;left=0;bottom=0;right=0;editable=1;overflow=hidden;whiteSpace=wrap;html=1;" parent="c9jh2oVVF1-GprEwR0dj-39" vertex="1">
          <mxGeometry width="30" height="30" as="geometry">
            <mxRectangle width="30" height="30" as="alternateBounds" />
          </mxGeometry>
        </mxCell>
        <mxCell id="c9jh2oVVF1-GprEwR0dj-41" value="location_id (integer) NOT NULL" style="shape=partialRectangle;connectable=0;fillColor=light-dark(#FFFFFF,#000000);top=0;left=0;bottom=0;right=0;align=left;spacingLeft=6;overflow=hidden;whiteSpace=wrap;html=1;" parent="c9jh2oVVF1-GprEwR0dj-39" vertex="1">
          <mxGeometry x="30" width="190" height="30" as="geometry">
            <mxRectangle width="190" height="30" as="alternateBounds" />
          </mxGeometry>
        </mxCell>
        <mxCell id="c9jh2oVVF1-GprEwR0dj-45" value="Location" style="shape=table;startSize=30;container=1;collapsible=1;childLayout=tableLayout;fixedRows=1;rowLines=0;fontStyle=1;align=center;resizeLast=1;html=1;fillColor=light-dark(#FFFFFF,#000000);" parent="1" vertex="1">
          <mxGeometry x="1320" y="180" width="230" height="180" as="geometry" />
        </mxCell>
        <mxCell id="c9jh2oVVF1-GprEwR0dj-46" value="" style="shape=tableRow;horizontal=0;startSize=0;swimlaneHead=0;swimlaneBody=0;fillColor=light-dark(#FFFFFF,#000000);collapsible=0;dropTarget=0;points=[[0,0.5],[1,0.5]];portConstraint=eastwest;top=0;left=0;right=0;bottom=1;" parent="c9jh2oVVF1-GprEwR0dj-45" vertex="1">
          <mxGeometry y="30" width="230" height="30" as="geometry" />
        </mxCell>
        <mxCell id="c9jh2oVVF1-GprEwR0dj-47" value="PK" style="shape=partialRectangle;connectable=0;fillColor=light-dark(#FFFFFF,#000000);top=0;left=0;bottom=0;right=0;fontStyle=1;overflow=hidden;whiteSpace=wrap;html=1;" parent="c9jh2oVVF1-GprEwR0dj-46" vertex="1">
          <mxGeometry width="30" height="30" as="geometry">
            <mxRectangle width="30" height="30" as="alternateBounds" />
          </mxGeometry>
        </mxCell>
        <mxCell id="c9jh2oVVF1-GprEwR0dj-48" value="ID integer" style="shape=partialRectangle;connectable=0;fillColor=light-dark(#FFFFFF,#000000);top=0;left=0;bottom=0;right=0;align=left;spacingLeft=6;fontStyle=5;overflow=hidden;whiteSpace=wrap;html=1;" parent="c9jh2oVVF1-GprEwR0dj-46" vertex="1">
          <mxGeometry x="30" width="200" height="30" as="geometry">
            <mxRectangle width="200" height="30" as="alternateBounds" />
          </mxGeometry>
        </mxCell>
        <mxCell id="c9jh2oVVF1-GprEwR0dj-49" value="" style="shape=tableRow;horizontal=0;startSize=0;swimlaneHead=0;swimlaneBody=0;fillColor=light-dark(#FFFFFF,#000000);collapsible=0;dropTarget=0;points=[[0,0.5],[1,0.5]];portConstraint=eastwest;top=0;left=0;right=0;bottom=0;" parent="c9jh2oVVF1-GprEwR0dj-45" vertex="1">
          <mxGeometry y="60" width="230" height="30" as="geometry" />
        </mxCell>
        <mxCell id="c9jh2oVVF1-GprEwR0dj-50" value="" style="shape=partialRectangle;connectable=0;fillColor=light-dark(#FFFFFF,#000000);top=0;left=0;bottom=0;right=0;editable=1;overflow=hidden;whiteSpace=wrap;html=1;" parent="c9jh2oVVF1-GprEwR0dj-49" vertex="1">
          <mxGeometry width="30" height="30" as="geometry">
            <mxRectangle width="30" height="30" as="alternateBounds" />
          </mxGeometry>
        </mxCell>
        <mxCell id="c9jh2oVVF1-GprEwR0dj-51" value="name (varchar(20)) NOT NULL" style="shape=partialRectangle;connectable=0;fillColor=light-dark(#FFFFFF,#000000);top=0;left=0;bottom=0;right=0;align=left;spacingLeft=6;overflow=hidden;whiteSpace=wrap;html=1;" parent="c9jh2oVVF1-GprEwR0dj-49" vertex="1">
          <mxGeometry x="30" width="200" height="30" as="geometry">
            <mxRectangle width="200" height="30" as="alternateBounds" />
          </mxGeometry>
        </mxCell>
        <mxCell id="c9jh2oVVF1-GprEwR0dj-52" value="" style="shape=tableRow;horizontal=0;startSize=0;swimlaneHead=0;swimlaneBody=0;fillColor=light-dark(#FFFFFF,#000000);collapsible=0;dropTarget=0;points=[[0,0.5],[1,0.5]];portConstraint=eastwest;top=0;left=0;right=0;bottom=0;" parent="c9jh2oVVF1-GprEwR0dj-45" vertex="1">
          <mxGeometry y="90" width="230" height="30" as="geometry" />
        </mxCell>
        <mxCell id="c9jh2oVVF1-GprEwR0dj-53" value="" style="shape=partialRectangle;connectable=0;fillColor=light-dark(#FFFFFF,#000000);top=0;left=0;bottom=0;right=0;editable=1;overflow=hidden;whiteSpace=wrap;html=1;" parent="c9jh2oVVF1-GprEwR0dj-52" vertex="1">
          <mxGeometry width="30" height="30" as="geometry">
            <mxRectangle width="30" height="30" as="alternateBounds" />
          </mxGeometry>
        </mxCell>
        <mxCell id="c9jh2oVVF1-GprEwR0dj-54" value="safetly safety_state" style="shape=partialRectangle;connectable=0;fillColor=light-dark(#FFFFFF,#000000);top=0;left=0;bottom=0;right=0;align=left;spacingLeft=6;overflow=hidden;whiteSpace=wrap;html=1;" parent="c9jh2oVVF1-GprEwR0dj-52" vertex="1">
          <mxGeometry x="30" width="200" height="30" as="geometry">
            <mxRectangle width="200" height="30" as="alternateBounds" />
          </mxGeometry>
        </mxCell>
        <mxCell id="c9jh2oVVF1-GprEwR0dj-55" value="" style="shape=tableRow;horizontal=0;startSize=0;swimlaneHead=0;swimlaneBody=0;fillColor=light-dark(#FFFFFF,#000000);collapsible=0;dropTarget=0;points=[[0,0.5],[1,0.5]];portConstraint=eastwest;top=0;left=0;right=0;bottom=0;" parent="c9jh2oVVF1-GprEwR0dj-45" vertex="1">
          <mxGeometry y="120" width="230" height="30" as="geometry" />
        </mxCell>
        <mxCell id="c9jh2oVVF1-GprEwR0dj-56" value="" style="shape=partialRectangle;connectable=0;fillColor=light-dark(#FFFFFF,#000000);top=0;left=0;bottom=0;right=0;editable=1;overflow=hidden;whiteSpace=wrap;html=1;" parent="c9jh2oVVF1-GprEwR0dj-55" vertex="1">
          <mxGeometry width="30" height="30" as="geometry">
            <mxRectangle width="30" height="30" as="alternateBounds" />
          </mxGeometry>
        </mxCell>
        <mxCell id="c9jh2oVVF1-GprEwR0dj-57" value="floor smallint" style="shape=partialRectangle;connectable=0;fillColor=light-dark(#FFFFFF,#000000);top=0;left=0;bottom=0;right=0;align=left;spacingLeft=6;overflow=hidden;whiteSpace=wrap;html=1;" parent="c9jh2oVVF1-GprEwR0dj-55" vertex="1">
          <mxGeometry x="30" width="200" height="30" as="geometry">
            <mxRectangle width="200" height="30" as="alternateBounds" />
          </mxGeometry>
        </mxCell>
        <mxCell id="c9jh2oVVF1-GprEwR0dj-58" value="" style="shape=tableRow;horizontal=0;startSize=0;swimlaneHead=0;swimlaneBody=0;fillColor=light-dark(#FFFFFF,#000000);collapsible=0;dropTarget=0;points=[[0,0.5],[1,0.5]];portConstraint=eastwest;top=0;left=0;right=0;bottom=0;" parent="c9jh2oVVF1-GprEwR0dj-45" vertex="1">
          <mxGeometry y="150" width="230" height="30" as="geometry" />
        </mxCell>
        <mxCell id="c9jh2oVVF1-GprEwR0dj-59" value="" style="shape=partialRectangle;connectable=0;fillColor=light-dark(#FFFFFF,#000000);top=0;left=0;bottom=0;right=0;editable=1;overflow=hidden;whiteSpace=wrap;html=1;" parent="c9jh2oVVF1-GprEwR0dj-58" vertex="1">
          <mxGeometry width="30" height="30" as="geometry">
            <mxRectangle width="30" height="30" as="alternateBounds" />
          </mxGeometry>
        </mxCell>
        <mxCell id="c9jh2oVVF1-GprEwR0dj-60" value="in_out boolean" style="shape=partialRectangle;connectable=0;fillColor=light-dark(#FFFFFF,#000000);top=0;left=0;bottom=0;right=0;align=left;spacingLeft=6;overflow=hidden;whiteSpace=wrap;html=1;" parent="c9jh2oVVF1-GprEwR0dj-58" vertex="1">
          <mxGeometry x="30" width="200" height="30" as="geometry">
            <mxRectangle width="200" height="30" as="alternateBounds" />
          </mxGeometry>
        </mxCell>
        <mxCell id="c9jh2oVVF1-GprEwR0dj-61" value="" style="edgeStyle=entityRelationEdgeStyle;fontSize=12;html=1;endArrow=ERoneToMany;rounded=0;exitX=-0.009;exitY=0.075;exitDx=0;exitDy=0;exitPerimeter=0;entryX=1;entryY=0.5;entryDx=0;entryDy=0;fillColor=light-dark(#FFFFFF,#000000);" parent="1" source="c9jh2oVVF1-GprEwR0dj-45" target="c9jh2oVVF1-GprEwR0dj-30" edge="1">
          <mxGeometry width="100" height="100" relative="1" as="geometry">
            <mxPoint x="920" y="330" as="sourcePoint" />
            <mxPoint x="1020" y="230" as="targetPoint" />
            <Array as="points">
              <mxPoint x="1043" y="420" />
            </Array>
          </mxGeometry>
        </mxCell>
        <mxCell id="c9jh2oVVF1-GprEwR0dj-63" value="Action" style="shape=table;startSize=30;container=1;collapsible=1;childLayout=tableLayout;fixedRows=1;rowLines=0;fontStyle=1;align=center;resizeLast=1;html=1;fillColor=light-dark(#FFFFFF,#000000);" parent="1" vertex="1">
          <mxGeometry x="1020" y="449" width="200" height="180" as="geometry" />
        </mxCell>
        <mxCell id="c9jh2oVVF1-GprEwR0dj-64" value="" style="shape=tableRow;horizontal=0;startSize=0;swimlaneHead=0;swimlaneBody=0;fillColor=light-dark(#FFFFFF,#000000);collapsible=0;dropTarget=0;points=[[0,0.5],[1,0.5]];portConstraint=eastwest;top=0;left=0;right=0;bottom=1;" parent="c9jh2oVVF1-GprEwR0dj-63" vertex="1">
          <mxGeometry y="30" width="200" height="30" as="geometry" />
        </mxCell>
        <mxCell id="c9jh2oVVF1-GprEwR0dj-65" value="PK" style="shape=partialRectangle;connectable=0;fillColor=light-dark(#FFFFFF,#000000);top=0;left=0;bottom=0;right=0;fontStyle=1;overflow=hidden;whiteSpace=wrap;html=1;" parent="c9jh2oVVF1-GprEwR0dj-64" vertex="1">
          <mxGeometry width="30" height="30" as="geometry">
            <mxRectangle width="30" height="30" as="alternateBounds" />
          </mxGeometry>
        </mxCell>
        <mxCell id="c9jh2oVVF1-GprEwR0dj-66" value="ID integer" style="shape=partialRectangle;connectable=0;fillColor=light-dark(#FFFFFF,#000000);top=0;left=0;bottom=0;right=0;align=left;spacingLeft=6;fontStyle=5;overflow=hidden;whiteSpace=wrap;html=1;" parent="c9jh2oVVF1-GprEwR0dj-64" vertex="1">
          <mxGeometry x="30" width="170" height="30" as="geometry">
            <mxRectangle width="170" height="30" as="alternateBounds" />
          </mxGeometry>
        </mxCell>
        <mxCell id="c9jh2oVVF1-GprEwR0dj-67" value="" style="shape=tableRow;horizontal=0;startSize=0;swimlaneHead=0;swimlaneBody=0;fillColor=light-dark(#FFFFFF,#000000);collapsible=0;dropTarget=0;points=[[0,0.5],[1,0.5]];portConstraint=eastwest;top=0;left=0;right=0;bottom=0;" parent="c9jh2oVVF1-GprEwR0dj-63" vertex="1">
          <mxGeometry y="60" width="200" height="30" as="geometry" />
        </mxCell>
        <mxCell id="c9jh2oVVF1-GprEwR0dj-68" value="" style="shape=partialRectangle;connectable=0;fillColor=light-dark(#FFFFFF,#000000);top=0;left=0;bottom=0;right=0;editable=1;overflow=hidden;whiteSpace=wrap;html=1;" parent="c9jh2oVVF1-GprEwR0dj-67" vertex="1">
          <mxGeometry width="30" height="30" as="geometry">
            <mxRectangle width="30" height="30" as="alternateBounds" />
          </mxGeometry>
        </mxCell>
        <mxCell id="c9jh2oVVF1-GprEwR0dj-69" value="name (varchar(20))" style="shape=partialRectangle;connectable=0;fillColor=light-dark(#FFFFFF,#000000);top=0;left=0;bottom=0;right=0;align=left;spacingLeft=6;overflow=hidden;whiteSpace=wrap;html=1;" parent="c9jh2oVVF1-GprEwR0dj-67" vertex="1">
          <mxGeometry x="30" width="170" height="30" as="geometry">
            <mxRectangle width="170" height="30" as="alternateBounds" />
          </mxGeometry>
        </mxCell>
        <mxCell id="c9jh2oVVF1-GprEwR0dj-70" value="" style="shape=tableRow;horizontal=0;startSize=0;swimlaneHead=0;swimlaneBody=0;fillColor=light-dark(#FFFFFF,#000000);collapsible=0;dropTarget=0;points=[[0,0.5],[1,0.5]];portConstraint=eastwest;top=0;left=0;right=0;bottom=0;" parent="c9jh2oVVF1-GprEwR0dj-63" vertex="1">
          <mxGeometry y="90" width="200" height="30" as="geometry" />
        </mxCell>
        <mxCell id="c9jh2oVVF1-GprEwR0dj-71" value="" style="shape=partialRectangle;connectable=0;fillColor=light-dark(#FFFFFF,#000000);top=0;left=0;bottom=0;right=0;editable=1;overflow=hidden;whiteSpace=wrap;html=1;" parent="c9jh2oVVF1-GprEwR0dj-70" vertex="1">
          <mxGeometry width="30" height="30" as="geometry">
            <mxRectangle width="30" height="30" as="alternateBounds" />
          </mxGeometry>
        </mxCell>
        <mxCell id="c9jh2oVVF1-GprEwR0dj-72" value="location_id integer" style="shape=partialRectangle;connectable=0;fillColor=light-dark(#FFFFFF,#000000);top=0;left=0;bottom=0;right=0;align=left;spacingLeft=6;overflow=hidden;whiteSpace=wrap;html=1;" parent="c9jh2oVVF1-GprEwR0dj-70" vertex="1">
          <mxGeometry x="30" width="170" height="30" as="geometry">
            <mxRectangle width="170" height="30" as="alternateBounds" />
          </mxGeometry>
        </mxCell>
        <mxCell id="c9jh2oVVF1-GprEwR0dj-73" value="" style="shape=tableRow;horizontal=0;startSize=0;swimlaneHead=0;swimlaneBody=0;fillColor=light-dark(#FFFFFF,#000000);collapsible=0;dropTarget=0;points=[[0,0.5],[1,0.5]];portConstraint=eastwest;top=0;left=0;right=0;bottom=0;" parent="c9jh2oVVF1-GprEwR0dj-63" vertex="1">
          <mxGeometry y="120" width="200" height="30" as="geometry" />
        </mxCell>
        <mxCell id="c9jh2oVVF1-GprEwR0dj-74" value="" style="shape=partialRectangle;connectable=0;fillColor=light-dark(#FFFFFF,#000000);top=0;left=0;bottom=0;right=0;editable=1;overflow=hidden;whiteSpace=wrap;html=1;" parent="c9jh2oVVF1-GprEwR0dj-73" vertex="1">
          <mxGeometry width="30" height="30" as="geometry">
            <mxRectangle width="30" height="30" as="alternateBounds" />
          </mxGeometry>
        </mxCell>
        <mxCell id="c9jh2oVVF1-GprEwR0dj-75" value="time interval" style="shape=partialRectangle;connectable=0;fillColor=light-dark(#FFFFFF,#000000);top=0;left=0;bottom=0;right=0;align=left;spacingLeft=6;overflow=hidden;whiteSpace=wrap;html=1;" parent="c9jh2oVVF1-GprEwR0dj-73" vertex="1">
          <mxGeometry x="30" width="170" height="30" as="geometry">
            <mxRectangle width="170" height="30" as="alternateBounds" />
          </mxGeometry>
        </mxCell>
        <mxCell id="c9jh2oVVF1-GprEwR0dj-76" value="" style="shape=tableRow;horizontal=0;startSize=0;swimlaneHead=0;swimlaneBody=0;fillColor=light-dark(#FFFFFF,#000000);collapsible=0;dropTarget=0;points=[[0,0.5],[1,0.5]];portConstraint=eastwest;top=0;left=0;right=0;bottom=0;" parent="c9jh2oVVF1-GprEwR0dj-63" vertex="1">
          <mxGeometry y="150" width="200" height="30" as="geometry" />
        </mxCell>
        <mxCell id="c9jh2oVVF1-GprEwR0dj-77" value="" style="shape=partialRectangle;connectable=0;fillColor=light-dark(#FFFFFF,#000000);top=0;left=0;bottom=0;right=0;editable=1;overflow=hidden;whiteSpace=wrap;html=1;" parent="c9jh2oVVF1-GprEwR0dj-76" vertex="1">
          <mxGeometry width="30" height="30" as="geometry">
            <mxRectangle width="30" height="30" as="alternateBounds" />
          </mxGeometry>
        </mxCell>
        <mxCell id="c9jh2oVVF1-GprEwR0dj-78" value="safety safety_state" style="shape=partialRectangle;connectable=0;fillColor=light-dark(#FFFFFF,#000000);top=0;left=0;bottom=0;right=0;align=left;spacingLeft=6;overflow=hidden;whiteSpace=wrap;html=1;" parent="c9jh2oVVF1-GprEwR0dj-76" vertex="1">
          <mxGeometry x="30" width="170" height="30" as="geometry">
            <mxRectangle width="170" height="30" as="alternateBounds" />
          </mxGeometry>
        </mxCell>
        <mxCell id="c9jh2oVVF1-GprEwR0dj-79" value="State" style="shape=table;startSize=30;container=1;collapsible=1;childLayout=tableLayout;fixedRows=1;rowLines=0;fontStyle=1;align=center;resizeLast=1;html=1;fillColor=light-dark(#FFFFFF,#000000);" parent="1" vertex="1">
          <mxGeometry x="1020" y="50" width="200" height="130.00000000000023" as="geometry" />
        </mxCell>
        <mxCell id="c9jh2oVVF1-GprEwR0dj-80" value="" style="shape=tableRow;horizontal=0;startSize=0;swimlaneHead=0;swimlaneBody=0;fillColor=light-dark(#FFFFFF,#000000);collapsible=0;dropTarget=0;points=[[0,0.5],[1,0.5]];portConstraint=eastwest;top=0;left=0;right=0;bottom=1;" parent="c9jh2oVVF1-GprEwR0dj-79" vertex="1">
          <mxGeometry y="30" width="200" height="30" as="geometry" />
        </mxCell>
        <mxCell id="c9jh2oVVF1-GprEwR0dj-81" value="PK" style="shape=partialRectangle;connectable=0;fillColor=light-dark(#FFFFFF,#000000);top=0;left=0;bottom=0;right=0;fontStyle=1;overflow=hidden;whiteSpace=wrap;html=1;" parent="c9jh2oVVF1-GprEwR0dj-80" vertex="1">
          <mxGeometry width="30" height="30" as="geometry">
            <mxRectangle width="30" height="30" as="alternateBounds" />
          </mxGeometry>
        </mxCell>
        <mxCell id="c9jh2oVVF1-GprEwR0dj-82" value="ID integer" style="shape=partialRectangle;connectable=0;fillColor=light-dark(#FFFFFF,#000000);top=0;left=0;bottom=0;right=0;align=left;spacingLeft=6;fontStyle=5;overflow=hidden;whiteSpace=wrap;html=1;" parent="c9jh2oVVF1-GprEwR0dj-80" vertex="1">
          <mxGeometry x="30" width="170" height="30" as="geometry">
            <mxRectangle width="170" height="30" as="alternateBounds" />
          </mxGeometry>
        </mxCell>
        <mxCell id="c9jh2oVVF1-GprEwR0dj-83" value="" style="shape=tableRow;horizontal=0;startSize=0;swimlaneHead=0;swimlaneBody=0;fillColor=light-dark(#FFFFFF,#000000);collapsible=0;dropTarget=0;points=[[0,0.5],[1,0.5]];portConstraint=eastwest;top=0;left=0;right=0;bottom=0;" parent="c9jh2oVVF1-GprEwR0dj-79" vertex="1">
          <mxGeometry y="60" width="200" height="20" as="geometry" />
        </mxCell>
        <mxCell id="c9jh2oVVF1-GprEwR0dj-84" value="" style="shape=partialRectangle;connectable=0;fillColor=light-dark(#FFFFFF,#000000);top=0;left=0;bottom=0;right=0;editable=1;overflow=hidden;whiteSpace=wrap;html=1;" parent="c9jh2oVVF1-GprEwR0dj-83" vertex="1">
          <mxGeometry width="30" height="20" as="geometry">
            <mxRectangle width="30" height="20" as="alternateBounds" />
          </mxGeometry>
        </mxCell>
        <mxCell id="c9jh2oVVF1-GprEwR0dj-85" value="name (varchar(20))" style="shape=partialRectangle;connectable=0;fillColor=light-dark(#FFFFFF,#000000);top=0;left=0;bottom=0;right=0;align=left;spacingLeft=6;overflow=hidden;whiteSpace=wrap;html=1;" parent="c9jh2oVVF1-GprEwR0dj-83" vertex="1">
          <mxGeometry x="30" width="170" height="20" as="geometry">
            <mxRectangle width="170" height="20" as="alternateBounds" />
          </mxGeometry>
        </mxCell>
        <mxCell id="c9jh2oVVF1-GprEwR0dj-86" value="" style="shape=tableRow;horizontal=0;startSize=0;swimlaneHead=0;swimlaneBody=0;fillColor=light-dark(#FFFFFF,#000000);collapsible=0;dropTarget=0;points=[[0,0.5],[1,0.5]];portConstraint=eastwest;top=0;left=0;right=0;bottom=0;" parent="c9jh2oVVF1-GprEwR0dj-79" vertex="1">
          <mxGeometry y="80" width="200" height="20" as="geometry" />
        </mxCell>
        <mxCell id="c9jh2oVVF1-GprEwR0dj-87" value="" style="shape=partialRectangle;connectable=0;fillColor=light-dark(#FFFFFF,#000000);top=0;left=0;bottom=0;right=0;editable=1;overflow=hidden;whiteSpace=wrap;html=1;" parent="c9jh2oVVF1-GprEwR0dj-86" vertex="1">
          <mxGeometry width="30" height="20" as="geometry">
            <mxRectangle width="30" height="20" as="alternateBounds" />
          </mxGeometry>
        </mxCell>
        <mxCell id="c9jh2oVVF1-GprEwR0dj-88" value="length interval" style="shape=partialRectangle;connectable=0;fillColor=light-dark(#FFFFFF,#000000);top=0;left=0;bottom=0;right=0;align=left;spacingLeft=6;overflow=hidden;whiteSpace=wrap;html=1;" parent="c9jh2oVVF1-GprEwR0dj-86" vertex="1">
          <mxGeometry x="30" width="170" height="20" as="geometry">
            <mxRectangle width="170" height="20" as="alternateBounds" />
          </mxGeometry>
        </mxCell>
        <mxCell id="c9jh2oVVF1-GprEwR0dj-89" value="" style="shape=tableRow;horizontal=0;startSize=0;swimlaneHead=0;swimlaneBody=0;fillColor=light-dark(#FFFFFF,#000000);collapsible=0;dropTarget=0;points=[[0,0.5],[1,0.5]];portConstraint=eastwest;top=0;left=0;right=0;bottom=0;" parent="c9jh2oVVF1-GprEwR0dj-79" vertex="1">
          <mxGeometry y="100" width="200" height="30" as="geometry" />
        </mxCell>
        <mxCell id="c9jh2oVVF1-GprEwR0dj-90" value="" style="shape=partialRectangle;connectable=0;fillColor=light-dark(#FFFFFF,#000000);top=0;left=0;bottom=0;right=0;editable=1;overflow=hidden;whiteSpace=wrap;html=1;" parent="c9jh2oVVF1-GprEwR0dj-89" vertex="1">
          <mxGeometry width="30" height="30" as="geometry">
            <mxRectangle width="30" height="30" as="alternateBounds" />
          </mxGeometry>
        </mxCell>
        <mxCell id="c9jh2oVVF1-GprEwR0dj-91" value="Effect effects" style="shape=partialRectangle;connectable=0;fillColor=light-dark(#FFFFFF,#000000);top=0;left=0;bottom=0;right=0;align=left;spacingLeft=6;overflow=hidden;whiteSpace=wrap;html=1;" parent="c9jh2oVVF1-GprEwR0dj-89" vertex="1">
          <mxGeometry x="30" width="170" height="30" as="geometry">
            <mxRectangle width="170" height="30" as="alternateBounds" />
          </mxGeometry>
        </mxCell>
        <mxCell id="c9jh2oVVF1-GprEwR0dj-92" value="" style="edgeStyle=entityRelationEdgeStyle;fontSize=12;html=1;endArrow=ERmandOne;startArrow=ERmandOne;rounded=0;exitX=1;exitY=0.5;exitDx=0;exitDy=0;entryX=0;entryY=0.5;entryDx=0;entryDy=0;fillColor=light-dark(#FFFFFF,#000000);" parent="1" source="c9jh2oVVF1-GprEwR0dj-27" target="c9jh2oVVF1-GprEwR0dj-89" edge="1">
          <mxGeometry width="100" height="100" relative="1" as="geometry">
            <mxPoint x="970" y="350" as="sourcePoint" />
            <mxPoint x="930" y="125" as="targetPoint" />
          </mxGeometry>
        </mxCell>
        <mxCell id="c9jh2oVVF1-GprEwR0dj-112" value="work" style="shape=table;startSize=30;container=1;collapsible=1;childLayout=tableLayout;fixedRows=1;rowLines=0;fontStyle=1;align=center;resizeLast=1;html=1;fillColor=light-dark(#FFFFFF,#000000);" parent="1" vertex="1">
          <mxGeometry x="1020" y="220" width="200" height="200" as="geometry">
            <mxRectangle x="1020" y="220" width="70" height="30" as="alternateBounds" />
          </mxGeometry>
        </mxCell>
        <mxCell id="c9jh2oVVF1-GprEwR0dj-113" value="" style="shape=tableRow;horizontal=0;startSize=0;swimlaneHead=0;swimlaneBody=0;fillColor=light-dark(#FFFFFF,#000000);collapsible=0;dropTarget=0;points=[[0,0.5],[1,0.5]];portConstraint=eastwest;top=0;left=0;right=0;bottom=1;" parent="c9jh2oVVF1-GprEwR0dj-112" vertex="1">
          <mxGeometry y="30" width="200" height="30" as="geometry" />
        </mxCell>
        <mxCell id="c9jh2oVVF1-GprEwR0dj-114" value="PK" style="shape=partialRectangle;connectable=0;fillColor=light-dark(#FFFFFF,#000000);top=0;left=0;bottom=0;right=0;fontStyle=1;overflow=hidden;whiteSpace=wrap;html=1;" parent="c9jh2oVVF1-GprEwR0dj-113" vertex="1">
          <mxGeometry width="30" height="30" as="geometry">
            <mxRectangle width="30" height="30" as="alternateBounds" />
          </mxGeometry>
        </mxCell>
        <mxCell id="c9jh2oVVF1-GprEwR0dj-115" value="ID integer" style="shape=partialRectangle;connectable=0;fillColor=light-dark(#FFFFFF,#000000);top=0;left=0;bottom=0;right=0;align=left;spacingLeft=6;fontStyle=5;overflow=hidden;whiteSpace=wrap;html=1;" parent="c9jh2oVVF1-GprEwR0dj-113" vertex="1">
          <mxGeometry x="30" width="170" height="30" as="geometry">
            <mxRectangle width="170" height="30" as="alternateBounds" />
          </mxGeometry>
        </mxCell>
        <mxCell id="c9jh2oVVF1-GprEwR0dj-116" value="" style="shape=tableRow;horizontal=0;startSize=0;swimlaneHead=0;swimlaneBody=0;fillColor=light-dark(#FFFFFF,#000000);collapsible=0;dropTarget=0;points=[[0,0.5],[1,0.5]];portConstraint=eastwest;top=0;left=0;right=0;bottom=0;" parent="c9jh2oVVF1-GprEwR0dj-112" vertex="1">
          <mxGeometry y="60" width="200" height="30" as="geometry" />
        </mxCell>
        <mxCell id="c9jh2oVVF1-GprEwR0dj-117" value="" style="shape=partialRectangle;connectable=0;fillColor=light-dark(#FFFFFF,#000000);top=0;left=0;bottom=0;right=0;editable=1;overflow=hidden;whiteSpace=wrap;html=1;" parent="c9jh2oVVF1-GprEwR0dj-116" vertex="1">
          <mxGeometry width="30" height="30" as="geometry">
            <mxRectangle width="30" height="30" as="alternateBounds" />
          </mxGeometry>
        </mxCell>
        <mxCell id="c9jh2oVVF1-GprEwR0dj-118" value="&lt;div&gt;&lt;span style=&quot;background-color: initial;&quot;&gt;start_time time_stamp&lt;/span&gt;&lt;/div&gt;" style="shape=partialRectangle;connectable=0;fillColor=light-dark(#FFFFFF,#000000);top=0;left=0;bottom=0;right=0;align=left;spacingLeft=6;overflow=hidden;whiteSpace=wrap;html=1;" parent="c9jh2oVVF1-GprEwR0dj-116" vertex="1">
          <mxGeometry x="30" width="170" height="30" as="geometry">
            <mxRectangle width="170" height="30" as="alternateBounds" />
          </mxGeometry>
        </mxCell>
        <mxCell id="c9jh2oVVF1-GprEwR0dj-119" value="" style="shape=tableRow;horizontal=0;startSize=0;swimlaneHead=0;swimlaneBody=0;fillColor=light-dark(#FFFFFF,#000000);collapsible=0;dropTarget=0;points=[[0,0.5],[1,0.5]];portConstraint=eastwest;top=0;left=0;right=0;bottom=0;" parent="c9jh2oVVF1-GprEwR0dj-112" vertex="1">
          <mxGeometry y="90" width="200" height="30" as="geometry" />
        </mxCell>
        <mxCell id="c9jh2oVVF1-GprEwR0dj-120" value="" style="shape=partialRectangle;connectable=0;fillColor=light-dark(#FFFFFF,#000000);top=0;left=0;bottom=0;right=0;editable=1;overflow=hidden;whiteSpace=wrap;html=1;" parent="c9jh2oVVF1-GprEwR0dj-119" vertex="1">
          <mxGeometry width="30" height="30" as="geometry">
            <mxRectangle width="30" height="30" as="alternateBounds" />
          </mxGeometry>
        </mxCell>
        <mxCell id="c9jh2oVVF1-GprEwR0dj-121" value="salary smallint&amp;gt;0&amp;nbsp;&amp;nbsp;" style="shape=partialRectangle;connectable=0;fillColor=light-dark(#FFFFFF,#000000);top=0;left=0;bottom=0;right=0;align=left;spacingLeft=6;overflow=hidden;whiteSpace=wrap;html=1;" parent="c9jh2oVVF1-GprEwR0dj-119" vertex="1">
          <mxGeometry x="30" width="170" height="30" as="geometry">
            <mxRectangle width="170" height="30" as="alternateBounds" />
          </mxGeometry>
        </mxCell>
        <mxCell id="c9jh2oVVF1-GprEwR0dj-122" value="" style="shape=tableRow;horizontal=0;startSize=0;swimlaneHead=0;swimlaneBody=0;fillColor=light-dark(#FFFFFF,#000000);collapsible=0;dropTarget=0;points=[[0,0.5],[1,0.5]];portConstraint=eastwest;top=0;left=0;right=0;bottom=0;" parent="c9jh2oVVF1-GprEwR0dj-112" vertex="1">
          <mxGeometry y="120" width="200" height="20" as="geometry" />
        </mxCell>
        <mxCell id="c9jh2oVVF1-GprEwR0dj-123" value="" style="shape=partialRectangle;connectable=0;fillColor=light-dark(#FFFFFF,#000000);top=0;left=0;bottom=0;right=0;editable=1;overflow=hidden;whiteSpace=wrap;html=1;" parent="c9jh2oVVF1-GprEwR0dj-122" vertex="1">
          <mxGeometry width="30" height="20" as="geometry">
            <mxRectangle width="30" height="20" as="alternateBounds" />
          </mxGeometry>
        </mxCell>
        <mxCell id="c9jh2oVVF1-GprEwR0dj-124" value="capasity smallint" style="shape=partialRectangle;connectable=0;fillColor=light-dark(#FFFFFF,#000000);top=0;left=0;bottom=0;right=0;align=left;spacingLeft=6;overflow=hidden;whiteSpace=wrap;html=1;" parent="c9jh2oVVF1-GprEwR0dj-122" vertex="1">
          <mxGeometry x="30" width="170" height="20" as="geometry">
            <mxRectangle width="170" height="20" as="alternateBounds" />
          </mxGeometry>
        </mxCell>
        <mxCell id="c9jh2oVVF1-GprEwR0dj-125" value="" style="shape=tableRow;horizontal=0;startSize=0;swimlaneHead=0;swimlaneBody=0;fillColor=light-dark(#FFFFFF,#000000);collapsible=0;dropTarget=0;points=[[0,0.5],[1,0.5]];portConstraint=eastwest;top=0;left=0;right=0;bottom=0;" parent="c9jh2oVVF1-GprEwR0dj-112" vertex="1">
          <mxGeometry y="140" width="200" height="30" as="geometry" />
        </mxCell>
        <mxCell id="c9jh2oVVF1-GprEwR0dj-126" value="FK" style="shape=partialRectangle;connectable=0;fillColor=light-dark(#FFFFFF,#000000);top=0;left=0;bottom=0;right=0;editable=1;overflow=hidden;whiteSpace=wrap;html=1;" parent="c9jh2oVVF1-GprEwR0dj-125" vertex="1">
          <mxGeometry width="30" height="30" as="geometry">
            <mxRectangle width="30" height="30" as="alternateBounds" />
          </mxGeometry>
        </mxCell>
        <mxCell id="c9jh2oVVF1-GprEwR0dj-127" value="location_id integer NOT NULL" style="shape=partialRectangle;connectable=0;fillColor=light-dark(#FFFFFF,#000000);top=0;left=0;bottom=0;right=0;align=left;spacingLeft=6;overflow=hidden;whiteSpace=wrap;html=1;" parent="c9jh2oVVF1-GprEwR0dj-125" vertex="1">
          <mxGeometry x="30" width="170" height="30" as="geometry">
            <mxRectangle width="170" height="30" as="alternateBounds" />
          </mxGeometry>
        </mxCell>
        <mxCell id="c9jh2oVVF1-GprEwR0dj-128" value="" style="shape=tableRow;horizontal=0;startSize=0;swimlaneHead=0;swimlaneBody=0;fillColor=light-dark(#FFFFFF,#000000);collapsible=0;dropTarget=0;points=[[0,0.5],[1,0.5]];portConstraint=eastwest;top=0;left=0;right=0;bottom=0;" parent="c9jh2oVVF1-GprEwR0dj-112" vertex="1">
          <mxGeometry y="170" width="200" height="30" as="geometry" />
        </mxCell>
        <mxCell id="c9jh2oVVF1-GprEwR0dj-129" value="" style="shape=partialRectangle;connectable=0;fillColor=light-dark(#FFFFFF,#000000);top=0;left=0;bottom=0;right=0;editable=1;overflow=hidden;whiteSpace=wrap;html=1;" parent="c9jh2oVVF1-GprEwR0dj-128" vertex="1">
          <mxGeometry width="30" height="30" as="geometry">
            <mxRectangle width="30" height="30" as="alternateBounds" />
          </mxGeometry>
        </mxCell>
        <mxCell id="c9jh2oVVF1-GprEwR0dj-130" value="finish_time time_stamp" style="shape=partialRectangle;connectable=0;fillColor=light-dark(#FFFFFF,#000000);top=0;left=0;bottom=0;right=0;align=left;spacingLeft=6;overflow=hidden;whiteSpace=wrap;html=1;" parent="c9jh2oVVF1-GprEwR0dj-128" vertex="1">
          <mxGeometry x="30" width="170" height="30" as="geometry">
            <mxRectangle width="170" height="30" as="alternateBounds" />
          </mxGeometry>
        </mxCell>
        <mxCell id="c9jh2oVVF1-GprEwR0dj-134" value="People_work" style="shape=table;startSize=30;container=1;collapsible=1;childLayout=tableLayout;fixedRows=1;rowLines=0;fontStyle=1;align=center;resizeLast=1;html=1;fillColor=light-dark(#FFFFFF,#000000);" parent="1" vertex="1">
          <mxGeometry x="760" y="225" width="200" height="125" as="geometry" />
        </mxCell>
        <mxCell id="c9jh2oVVF1-GprEwR0dj-135" value="" style="shape=tableRow;horizontal=0;startSize=0;swimlaneHead=0;swimlaneBody=0;fillColor=light-dark(#FFFFFF,#000000);collapsible=0;dropTarget=0;points=[[0,0.5],[1,0.5]];portConstraint=eastwest;top=0;left=0;right=0;bottom=1;" parent="c9jh2oVVF1-GprEwR0dj-134" vertex="1">
          <mxGeometry y="30" width="200" height="30" as="geometry" />
        </mxCell>
        <mxCell id="c9jh2oVVF1-GprEwR0dj-136" value="PK" style="shape=partialRectangle;connectable=0;fillColor=light-dark(#FFFFFF,#000000);top=0;left=0;bottom=0;right=0;fontStyle=1;overflow=hidden;whiteSpace=wrap;html=1;" parent="c9jh2oVVF1-GprEwR0dj-135" vertex="1">
          <mxGeometry width="30" height="30" as="geometry">
            <mxRectangle width="30" height="30" as="alternateBounds" />
          </mxGeometry>
        </mxCell>
        <mxCell id="c9jh2oVVF1-GprEwR0dj-137" value="ID integer" style="shape=partialRectangle;connectable=0;fillColor=light-dark(#FFFFFF,#000000);top=0;left=0;bottom=0;right=0;align=left;spacingLeft=6;fontStyle=5;overflow=hidden;whiteSpace=wrap;html=1;" parent="c9jh2oVVF1-GprEwR0dj-135" vertex="1">
          <mxGeometry x="30" width="170" height="30" as="geometry">
            <mxRectangle width="170" height="30" as="alternateBounds" />
          </mxGeometry>
        </mxCell>
        <mxCell id="c9jh2oVVF1-GprEwR0dj-138" value="" style="shape=tableRow;horizontal=0;startSize=0;swimlaneHead=0;swimlaneBody=0;fillColor=light-dark(#FFFFFF,#000000);collapsible=0;dropTarget=0;points=[[0,0.5],[1,0.5]];portConstraint=eastwest;top=0;left=0;right=0;bottom=0;" parent="c9jh2oVVF1-GprEwR0dj-134" vertex="1">
          <mxGeometry y="60" width="200" height="30" as="geometry" />
        </mxCell>
        <mxCell id="c9jh2oVVF1-GprEwR0dj-139" value="FK" style="shape=partialRectangle;connectable=0;fillColor=light-dark(#FFFFFF,#000000);top=0;left=0;bottom=0;right=0;editable=1;overflow=hidden;whiteSpace=wrap;html=1;" parent="c9jh2oVVF1-GprEwR0dj-138" vertex="1">
          <mxGeometry width="30" height="30" as="geometry">
            <mxRectangle width="30" height="30" as="alternateBounds" />
          </mxGeometry>
        </mxCell>
        <mxCell id="c9jh2oVVF1-GprEwR0dj-140" value="people_id integer NOT NULL" style="shape=partialRectangle;connectable=0;fillColor=light-dark(#FFFFFF,#000000);top=0;left=0;bottom=0;right=0;align=left;spacingLeft=6;overflow=hidden;whiteSpace=wrap;html=1;" parent="c9jh2oVVF1-GprEwR0dj-138" vertex="1">
          <mxGeometry x="30" width="170" height="30" as="geometry">
            <mxRectangle width="170" height="30" as="alternateBounds" />
          </mxGeometry>
        </mxCell>
        <mxCell id="c9jh2oVVF1-GprEwR0dj-141" value="" style="shape=tableRow;horizontal=0;startSize=0;swimlaneHead=0;swimlaneBody=0;fillColor=light-dark(#FFFFFF,#000000);collapsible=0;dropTarget=0;points=[[0,0.5],[1,0.5]];portConstraint=eastwest;top=0;left=0;right=0;bottom=0;" parent="c9jh2oVVF1-GprEwR0dj-134" vertex="1">
          <mxGeometry y="90" width="200" height="35" as="geometry" />
        </mxCell>
        <mxCell id="c9jh2oVVF1-GprEwR0dj-142" value="FK" style="shape=partialRectangle;connectable=0;fillColor=light-dark(#FFFFFF,#000000);top=0;left=0;bottom=0;right=0;editable=1;overflow=hidden;whiteSpace=wrap;html=1;" parent="c9jh2oVVF1-GprEwR0dj-141" vertex="1">
          <mxGeometry width="30" height="35" as="geometry">
            <mxRectangle width="30" height="35" as="alternateBounds" />
          </mxGeometry>
        </mxCell>
        <mxCell id="c9jh2oVVF1-GprEwR0dj-143" value="work_id integer NOT NULL" style="shape=partialRectangle;connectable=0;fillColor=light-dark(#FFFFFF,#000000);top=0;left=0;bottom=0;right=0;align=left;spacingLeft=6;overflow=hidden;whiteSpace=wrap;html=1;" parent="c9jh2oVVF1-GprEwR0dj-141" vertex="1">
          <mxGeometry x="30" width="170" height="35" as="geometry">
            <mxRectangle width="170" height="35" as="alternateBounds" />
          </mxGeometry>
        </mxCell>
        <mxCell id="c9jh2oVVF1-GprEwR0dj-149" value="relation" style="shape=table;startSize=30;container=1;collapsible=1;childLayout=tableLayout;fixedRows=1;rowLines=0;fontStyle=1;align=center;resizeLast=1;html=1;fillColor=light-dark(#FFFFFF,#000000);" parent="1" vertex="1">
          <mxGeometry x="770" width="200" height="150" as="geometry" />
        </mxCell>
        <mxCell id="c9jh2oVVF1-GprEwR0dj-150" value="" style="shape=tableRow;horizontal=0;startSize=0;swimlaneHead=0;swimlaneBody=0;fillColor=light-dark(#FFFFFF,#000000);collapsible=0;dropTarget=0;points=[[0,0.5],[1,0.5]];portConstraint=eastwest;top=0;left=0;right=0;bottom=1;" parent="c9jh2oVVF1-GprEwR0dj-149" vertex="1">
          <mxGeometry y="30" width="200" height="30" as="geometry" />
        </mxCell>
        <mxCell id="c9jh2oVVF1-GprEwR0dj-151" value="PK" style="shape=partialRectangle;connectable=0;fillColor=light-dark(#FFFFFF,#000000);top=0;left=0;bottom=0;right=0;fontStyle=1;overflow=hidden;whiteSpace=wrap;html=1;" parent="c9jh2oVVF1-GprEwR0dj-150" vertex="1">
          <mxGeometry width="30" height="30" as="geometry">
            <mxRectangle width="30" height="30" as="alternateBounds" />
          </mxGeometry>
        </mxCell>
        <mxCell id="c9jh2oVVF1-GprEwR0dj-152" value="ID integer" style="shape=partialRectangle;connectable=0;fillColor=light-dark(#FFFFFF,#000000);top=0;left=0;bottom=0;right=0;align=left;spacingLeft=6;fontStyle=5;overflow=hidden;whiteSpace=wrap;html=1;" parent="c9jh2oVVF1-GprEwR0dj-150" vertex="1">
          <mxGeometry x="30" width="170" height="30" as="geometry">
            <mxRectangle width="170" height="30" as="alternateBounds" />
          </mxGeometry>
        </mxCell>
        <mxCell id="c9jh2oVVF1-GprEwR0dj-153" value="" style="shape=tableRow;horizontal=0;startSize=0;swimlaneHead=0;swimlaneBody=0;fillColor=light-dark(#FFFFFF,#000000);collapsible=0;dropTarget=0;points=[[0,0.5],[1,0.5]];portConstraint=eastwest;top=0;left=0;right=0;bottom=0;" parent="c9jh2oVVF1-GprEwR0dj-149" vertex="1">
          <mxGeometry y="60" width="200" height="30" as="geometry" />
        </mxCell>
        <mxCell id="c9jh2oVVF1-GprEwR0dj-154" value="FK" style="shape=partialRectangle;connectable=0;fillColor=light-dark(#FFFFFF,#000000);top=0;left=0;bottom=0;right=0;editable=1;overflow=hidden;whiteSpace=wrap;html=1;" parent="c9jh2oVVF1-GprEwR0dj-153" vertex="1">
          <mxGeometry width="30" height="30" as="geometry">
            <mxRectangle width="30" height="30" as="alternateBounds" />
          </mxGeometry>
        </mxCell>
        <mxCell id="c9jh2oVVF1-GprEwR0dj-155" value="people_id1 integer NOT NULL" style="shape=partialRectangle;connectable=0;fillColor=light-dark(#FFFFFF,#000000);top=0;left=0;bottom=0;right=0;align=left;spacingLeft=6;overflow=hidden;whiteSpace=wrap;html=1;" parent="c9jh2oVVF1-GprEwR0dj-153" vertex="1">
          <mxGeometry x="30" width="170" height="30" as="geometry">
            <mxRectangle width="170" height="30" as="alternateBounds" />
          </mxGeometry>
        </mxCell>
        <mxCell id="c9jh2oVVF1-GprEwR0dj-156" value="" style="shape=tableRow;horizontal=0;startSize=0;swimlaneHead=0;swimlaneBody=0;fillColor=light-dark(#FFFFFF,#000000);collapsible=0;dropTarget=0;points=[[0,0.5],[1,0.5]];portConstraint=eastwest;top=0;left=0;right=0;bottom=0;" parent="c9jh2oVVF1-GprEwR0dj-149" vertex="1">
          <mxGeometry y="90" width="200" height="30" as="geometry" />
        </mxCell>
        <mxCell id="c9jh2oVVF1-GprEwR0dj-157" value="FK" style="shape=partialRectangle;connectable=0;fillColor=light-dark(#FFFFFF,#000000);top=0;left=0;bottom=0;right=0;editable=1;overflow=hidden;whiteSpace=wrap;html=1;" parent="c9jh2oVVF1-GprEwR0dj-156" vertex="1">
          <mxGeometry width="30" height="30" as="geometry">
            <mxRectangle width="30" height="30" as="alternateBounds" />
          </mxGeometry>
        </mxCell>
        <mxCell id="c9jh2oVVF1-GprEwR0dj-158" value="people_id2 integer NOT NULL" style="shape=partialRectangle;connectable=0;fillColor=light-dark(#FFFFFF,#000000);top=0;left=0;bottom=0;right=0;align=left;spacingLeft=6;overflow=hidden;whiteSpace=wrap;html=1;" parent="c9jh2oVVF1-GprEwR0dj-156" vertex="1">
          <mxGeometry x="30" width="170" height="30" as="geometry">
            <mxRectangle width="170" height="30" as="alternateBounds" />
          </mxGeometry>
        </mxCell>
        <mxCell id="c9jh2oVVF1-GprEwR0dj-159" value="" style="shape=tableRow;horizontal=0;startSize=0;swimlaneHead=0;swimlaneBody=0;fillColor=light-dark(#FFFFFF,#000000);collapsible=0;dropTarget=0;points=[[0,0.5],[1,0.5]];portConstraint=eastwest;top=0;left=0;right=0;bottom=0;" parent="c9jh2oVVF1-GprEwR0dj-149" vertex="1">
          <mxGeometry y="120" width="200" height="30" as="geometry" />
        </mxCell>
        <mxCell id="c9jh2oVVF1-GprEwR0dj-160" value="" style="shape=partialRectangle;connectable=0;fillColor=light-dark(#FFFFFF,#000000);top=0;left=0;bottom=0;right=0;editable=1;overflow=hidden;whiteSpace=wrap;html=1;" parent="c9jh2oVVF1-GprEwR0dj-159" vertex="1">
          <mxGeometry width="30" height="30" as="geometry">
            <mxRectangle width="30" height="30" as="alternateBounds" />
          </mxGeometry>
        </mxCell>
        <mxCell id="c9jh2oVVF1-GprEwR0dj-161" value="time interval&amp;nbsp;" style="shape=partialRectangle;connectable=0;fillColor=light-dark(#FFFFFF,#000000);top=0;left=0;bottom=0;right=0;align=left;spacingLeft=6;overflow=hidden;whiteSpace=wrap;html=1;" parent="c9jh2oVVF1-GprEwR0dj-159" vertex="1">
          <mxGeometry x="30" width="170" height="30" as="geometry">
            <mxRectangle width="170" height="30" as="alternateBounds" />
          </mxGeometry>
        </mxCell>
        <mxCell id="EKDiO9YUNdJGLWvZ-4pt-1" value="" style="edgeStyle=entityRelationEdgeStyle;fontSize=12;html=1;endArrow=ERoneToMany;rounded=0;entryX=0;entryY=0.5;entryDx=0;entryDy=0;exitX=1;exitY=0.5;exitDx=0;exitDy=0;fillColor=light-dark(#FFFFFF,#000000);" parent="1" source="c9jh2oVVF1-GprEwR0dj-36" target="c9jh2oVVF1-GprEwR0dj-138" edge="1">
          <mxGeometry width="100" height="100" relative="1" as="geometry">
            <mxPoint x="820" y="370" as="sourcePoint" />
            <mxPoint x="920" y="270" as="targetPoint" />
          </mxGeometry>
        </mxCell>
        <mxCell id="EKDiO9YUNdJGLWvZ-4pt-2" value="" style="edgeStyle=entityRelationEdgeStyle;fontSize=12;html=1;endArrow=ERoneToMany;rounded=0;entryX=1;entryY=0.5;entryDx=0;entryDy=0;exitX=0;exitY=0.5;exitDx=0;exitDy=0;fillColor=light-dark(#FFFFFF,#000000);" parent="1" source="c9jh2oVVF1-GprEwR0dj-113" target="c9jh2oVVF1-GprEwR0dj-141" edge="1">
          <mxGeometry width="100" height="100" relative="1" as="geometry">
            <mxPoint x="820" y="370" as="sourcePoint" />
            <mxPoint x="920" y="270" as="targetPoint" />
          </mxGeometry>
        </mxCell>
        <mxCell id="c9jh2oVVF1-GprEwR0dj-163" value="" style="edgeStyle=entityRelationEdgeStyle;fontSize=12;html=1;endArrow=ERoneToMany;rounded=0;exitX=1;exitY=0.5;exitDx=0;exitDy=0;entryX=0;entryY=0.5;entryDx=0;entryDy=0;fillColor=light-dark(#FFFFFF,#000000);" parent="1" source="c9jh2oVVF1-GprEwR0dj-24" target="c9jh2oVVF1-GprEwR0dj-156" edge="1">
          <mxGeometry width="100" height="100" relative="1" as="geometry">
            <mxPoint x="585" y="240" as="sourcePoint" />
            <mxPoint x="850" y="135" as="targetPoint" />
          </mxGeometry>
        </mxCell>
        <mxCell id="EKDiO9YUNdJGLWvZ-4pt-3" value="" style="edgeStyle=entityRelationEdgeStyle;fontSize=12;html=1;endArrow=ERoneToMany;rounded=0;entryX=1;entryY=0.5;entryDx=0;entryDy=0;exitX=-0.01;exitY=0.067;exitDx=0;exitDy=0;exitPerimeter=0;fillColor=light-dark(#FFFFFF,#000000);" parent="1" source="c9jh2oVVF1-GprEwR0dj-46" target="c9jh2oVVF1-GprEwR0dj-125" edge="1">
          <mxGeometry width="100" height="100" relative="1" as="geometry">
            <mxPoint x="950" y="370" as="sourcePoint" />
            <mxPoint x="1050" y="270" as="targetPoint" />
          </mxGeometry>
        </mxCell>
        <mxCell id="EKDiO9YUNdJGLWvZ-4pt-7" value="" style="edgeStyle=entityRelationEdgeStyle;fontSize=12;html=1;endArrow=ERoneToMany;rounded=0;entryX=1;entryY=0.5;entryDx=0;entryDy=0;exitX=0;exitY=0.5;exitDx=0;exitDy=0;fillColor=light-dark(#FFFFFF,#000000);" parent="1" source="c9jh2oVVF1-GprEwR0dj-153" target="c9jh2oVVF1-GprEwR0dj-21" edge="1">
          <mxGeometry width="100" height="100" relative="1" as="geometry">
            <mxPoint x="720" y="190" as="sourcePoint" />
            <mxPoint x="820" y="90" as="targetPoint" />
          </mxGeometry>
        </mxCell>
        <mxCell id="EKDiO9YUNdJGLWvZ-4pt-8" value="relation" style="shape=table;startSize=30;container=1;collapsible=1;childLayout=tableLayout;fixedRows=1;rowLines=0;fontStyle=1;align=center;resizeLast=1;html=1;fillColor=light-dark(#FFFFFF,#000000);" parent="1" vertex="1">
          <mxGeometry y="10" width="200" height="150" as="geometry" />
        </mxCell>
        <mxCell id="EKDiO9YUNdJGLWvZ-4pt-9" value="" style="shape=tableRow;horizontal=0;startSize=0;swimlaneHead=0;swimlaneBody=0;fillColor=light-dark(#FFFFFF,#000000);collapsible=0;dropTarget=0;points=[[0,0.5],[1,0.5]];portConstraint=eastwest;top=0;left=0;right=0;bottom=1;" parent="EKDiO9YUNdJGLWvZ-4pt-8" vertex="1">
          <mxGeometry y="30" width="200" height="30" as="geometry" />
        </mxCell>
        <mxCell id="EKDiO9YUNdJGLWvZ-4pt-10" value="PK" style="shape=partialRectangle;connectable=0;fillColor=light-dark(#FFFFFF,#000000);top=0;left=0;bottom=0;right=0;fontStyle=1;overflow=hidden;whiteSpace=wrap;html=1;" parent="EKDiO9YUNdJGLWvZ-4pt-9" vertex="1">
          <mxGeometry width="30" height="30" as="geometry">
            <mxRectangle width="30" height="30" as="alternateBounds" />
          </mxGeometry>
        </mxCell>
        <mxCell id="EKDiO9YUNdJGLWvZ-4pt-11" value="ID integer" style="shape=partialRectangle;connectable=0;fillColor=light-dark(#FFFFFF,#000000);top=0;left=0;bottom=0;right=0;align=left;spacingLeft=6;fontStyle=5;overflow=hidden;whiteSpace=wrap;html=1;" parent="EKDiO9YUNdJGLWvZ-4pt-9" vertex="1">
          <mxGeometry x="30" width="170" height="30" as="geometry">
            <mxRectangle width="170" height="30" as="alternateBounds" />
          </mxGeometry>
        </mxCell>
        <mxCell id="EKDiO9YUNdJGLWvZ-4pt-12" value="" style="shape=tableRow;horizontal=0;startSize=0;swimlaneHead=0;swimlaneBody=0;fillColor=light-dark(#FFFFFF,#000000);collapsible=0;dropTarget=0;points=[[0,0.5],[1,0.5]];portConstraint=eastwest;top=0;left=0;right=0;bottom=0;" parent="EKDiO9YUNdJGLWvZ-4pt-8" vertex="1">
          <mxGeometry y="60" width="200" height="30" as="geometry" />
        </mxCell>
        <mxCell id="EKDiO9YUNdJGLWvZ-4pt-13" value="FK" style="shape=partialRectangle;connectable=0;fillColor=light-dark(#FFFFFF,#000000);top=0;left=0;bottom=0;right=0;editable=1;overflow=hidden;whiteSpace=wrap;html=1;" parent="EKDiO9YUNdJGLWvZ-4pt-12" vertex="1">
          <mxGeometry width="30" height="30" as="geometry">
            <mxRectangle width="30" height="30" as="alternateBounds" />
          </mxGeometry>
        </mxCell>
        <mxCell id="EKDiO9YUNdJGLWvZ-4pt-14" value="people_id1 integer NOT NULL" style="shape=partialRectangle;connectable=0;fillColor=light-dark(#FFFFFF,#000000);top=0;left=0;bottom=0;right=0;align=left;spacingLeft=6;overflow=hidden;whiteSpace=wrap;html=1;" parent="EKDiO9YUNdJGLWvZ-4pt-12" vertex="1">
          <mxGeometry x="30" width="170" height="30" as="geometry">
            <mxRectangle width="170" height="30" as="alternateBounds" />
          </mxGeometry>
        </mxCell>
        <mxCell id="EKDiO9YUNdJGLWvZ-4pt-15" value="" style="shape=tableRow;horizontal=0;startSize=0;swimlaneHead=0;swimlaneBody=0;fillColor=light-dark(#FFFFFF,#000000);collapsible=0;dropTarget=0;points=[[0,0.5],[1,0.5]];portConstraint=eastwest;top=0;left=0;right=0;bottom=0;" parent="EKDiO9YUNdJGLWvZ-4pt-8" vertex="1">
          <mxGeometry y="90" width="200" height="30" as="geometry" />
        </mxCell>
        <mxCell id="EKDiO9YUNdJGLWvZ-4pt-16" value="FK" style="shape=partialRectangle;connectable=0;fillColor=light-dark(#FFFFFF,#000000);top=0;left=0;bottom=0;right=0;editable=1;overflow=hidden;whiteSpace=wrap;html=1;" parent="EKDiO9YUNdJGLWvZ-4pt-15" vertex="1">
          <mxGeometry width="30" height="30" as="geometry">
            <mxRectangle width="30" height="30" as="alternateBounds" />
          </mxGeometry>
        </mxCell>
        <mxCell id="EKDiO9YUNdJGLWvZ-4pt-17" value="people_id2 integer NOT NULL" style="shape=partialRectangle;connectable=0;fillColor=light-dark(#FFFFFF,#000000);top=0;left=0;bottom=0;right=0;align=left;spacingLeft=6;overflow=hidden;whiteSpace=wrap;html=1;" parent="EKDiO9YUNdJGLWvZ-4pt-15" vertex="1">
          <mxGeometry x="30" width="170" height="30" as="geometry">
            <mxRectangle width="170" height="30" as="alternateBounds" />
          </mxGeometry>
        </mxCell>
        <mxCell id="EKDiO9YUNdJGLWvZ-4pt-18" value="" style="shape=tableRow;horizontal=0;startSize=0;swimlaneHead=0;swimlaneBody=0;fillColor=light-dark(#FFFFFF,#000000);collapsible=0;dropTarget=0;points=[[0,0.5],[1,0.5]];portConstraint=eastwest;top=0;left=0;right=0;bottom=0;" parent="EKDiO9YUNdJGLWvZ-4pt-8" vertex="1">
          <mxGeometry y="120" width="200" height="30" as="geometry" />
        </mxCell>
        <mxCell id="EKDiO9YUNdJGLWvZ-4pt-19" value="" style="shape=partialRectangle;connectable=0;fillColor=light-dark(#FFFFFF,#000000);top=0;left=0;bottom=0;right=0;editable=1;overflow=hidden;whiteSpace=wrap;html=1;" parent="EKDiO9YUNdJGLWvZ-4pt-18" vertex="1">
          <mxGeometry width="30" height="30" as="geometry">
            <mxRectangle width="30" height="30" as="alternateBounds" />
          </mxGeometry>
        </mxCell>
        <mxCell id="EKDiO9YUNdJGLWvZ-4pt-20" value="time interval&amp;nbsp;" style="shape=partialRectangle;connectable=0;fillColor=light-dark(#FFFFFF,#000000);top=0;left=0;bottom=0;right=0;align=left;spacingLeft=6;overflow=hidden;whiteSpace=wrap;html=1;" parent="EKDiO9YUNdJGLWvZ-4pt-18" vertex="1">
          <mxGeometry x="30" width="170" height="30" as="geometry">
            <mxRectangle width="170" height="30" as="alternateBounds" />
          </mxGeometry>
        </mxCell>
        <mxCell id="EKDiO9YUNdJGLWvZ-4pt-21" value="" style="edgeStyle=entityRelationEdgeStyle;fontSize=12;html=1;endArrow=ERoneToMany;rounded=0;entryX=1;entryY=0.5;entryDx=0;entryDy=0;exitX=0;exitY=0.5;exitDx=0;exitDy=0;fillColor=light-dark(#FFFFFF,#000000);" parent="1" source="5BqqWERzwNXMWdmKXzrG-82" target="5BqqWERzwNXMWdmKXzrG-69" edge="1">
          <mxGeometry width="100" height="100" relative="1" as="geometry">
            <mxPoint x="470" y="420" as="sourcePoint" />
            <mxPoint x="570" y="320" as="targetPoint" />
          </mxGeometry>
        </mxCell>
        <mxCell id="EKDiO9YUNdJGLWvZ-4pt-22" value="" style="edgeStyle=entityRelationEdgeStyle;fontSize=12;html=1;endArrow=ERoneToMany;rounded=0;entryX=1.019;entryY=0.096;entryDx=0;entryDy=0;entryPerimeter=0;exitX=0;exitY=0.5;exitDx=0;exitDy=0;fillColor=light-dark(#FFFFFF,#000000);" parent="1" source="c9jh2oVVF1-GprEwR0dj-58" target="c9jh2oVVF1-GprEwR0dj-63" edge="1">
          <mxGeometry width="100" height="100" relative="1" as="geometry">
            <mxPoint x="1237.2" y="423.72" as="sourcePoint" />
            <mxPoint x="1169.0000000000002" y="550.0000000000002" as="targetPoint" />
          </mxGeometry>
        </mxCell>
        <mxCell id="EKDiO9YUNdJGLWvZ-4pt-23" value="" style="edgeStyle=entityRelationEdgeStyle;fontSize=12;html=1;endArrow=ERoneToMany;rounded=0;entryX=1;entryY=0.5;entryDx=0;entryDy=0;exitX=0;exitY=0.5;exitDx=0;exitDy=0;fillColor=light-dark(#FFFFFF,#000000);" parent="1" source="5BqqWERzwNXMWdmKXzrG-91" target="5BqqWERzwNXMWdmKXzrG-128" edge="1">
          <mxGeometry width="100" height="100" relative="1" as="geometry">
            <mxPoint x="260" y="315" as="sourcePoint" />
            <mxPoint x="192" y="441" as="targetPoint" />
          </mxGeometry>
        </mxCell>
        <mxCell id="EKDiO9YUNdJGLWvZ-4pt-24" value="People_action" style="shape=table;startSize=30;container=1;collapsible=1;childLayout=tableLayout;fixedRows=1;rowLines=0;fontStyle=1;align=center;resizeLast=1;html=1;fillColor=light-dark(#FFFFFF,#000000);" parent="1" vertex="1">
          <mxGeometry x="740" y="420" width="200" height="125" as="geometry" />
        </mxCell>
        <mxCell id="EKDiO9YUNdJGLWvZ-4pt-25" value="" style="shape=tableRow;horizontal=0;startSize=0;swimlaneHead=0;swimlaneBody=0;fillColor=light-dark(#FFFFFF,#000000);collapsible=0;dropTarget=0;points=[[0,0.5],[1,0.5]];portConstraint=eastwest;top=0;left=0;right=0;bottom=1;" parent="EKDiO9YUNdJGLWvZ-4pt-24" vertex="1">
          <mxGeometry y="30" width="200" height="30" as="geometry" />
        </mxCell>
        <mxCell id="EKDiO9YUNdJGLWvZ-4pt-26" value="PK" style="shape=partialRectangle;connectable=0;fillColor=light-dark(#FFFFFF,#000000);top=0;left=0;bottom=0;right=0;fontStyle=1;overflow=hidden;whiteSpace=wrap;html=1;" parent="EKDiO9YUNdJGLWvZ-4pt-25" vertex="1">
          <mxGeometry width="30" height="30" as="geometry">
            <mxRectangle width="30" height="30" as="alternateBounds" />
          </mxGeometry>
        </mxCell>
        <mxCell id="EKDiO9YUNdJGLWvZ-4pt-27" value="ID integer" style="shape=partialRectangle;connectable=0;fillColor=light-dark(#FFFFFF,#000000);top=0;left=0;bottom=0;right=0;align=left;spacingLeft=6;fontStyle=5;overflow=hidden;whiteSpace=wrap;html=1;" parent="EKDiO9YUNdJGLWvZ-4pt-25" vertex="1">
          <mxGeometry x="30" width="170" height="30" as="geometry">
            <mxRectangle width="170" height="30" as="alternateBounds" />
          </mxGeometry>
        </mxCell>
        <mxCell id="EKDiO9YUNdJGLWvZ-4pt-28" value="" style="shape=tableRow;horizontal=0;startSize=0;swimlaneHead=0;swimlaneBody=0;fillColor=light-dark(#FFFFFF,#000000);collapsible=0;dropTarget=0;points=[[0,0.5],[1,0.5]];portConstraint=eastwest;top=0;left=0;right=0;bottom=0;" parent="EKDiO9YUNdJGLWvZ-4pt-24" vertex="1">
          <mxGeometry y="60" width="200" height="30" as="geometry" />
        </mxCell>
        <mxCell id="EKDiO9YUNdJGLWvZ-4pt-29" value="FK" style="shape=partialRectangle;connectable=0;fillColor=light-dark(#FFFFFF,#000000);top=0;left=0;bottom=0;right=0;editable=1;overflow=hidden;whiteSpace=wrap;html=1;" parent="EKDiO9YUNdJGLWvZ-4pt-28" vertex="1">
          <mxGeometry width="30" height="30" as="geometry">
            <mxRectangle width="30" height="30" as="alternateBounds" />
          </mxGeometry>
        </mxCell>
        <mxCell id="EKDiO9YUNdJGLWvZ-4pt-30" value="people_id integer NOT NULL" style="shape=partialRectangle;connectable=0;fillColor=light-dark(#FFFFFF,#000000);top=0;left=0;bottom=0;right=0;align=left;spacingLeft=6;overflow=hidden;whiteSpace=wrap;html=1;" parent="EKDiO9YUNdJGLWvZ-4pt-28" vertex="1">
          <mxGeometry x="30" width="170" height="30" as="geometry">
            <mxRectangle width="170" height="30" as="alternateBounds" />
          </mxGeometry>
        </mxCell>
        <mxCell id="EKDiO9YUNdJGLWvZ-4pt-31" value="" style="shape=tableRow;horizontal=0;startSize=0;swimlaneHead=0;swimlaneBody=0;fillColor=light-dark(#FFFFFF,#000000);collapsible=0;dropTarget=0;points=[[0,0.5],[1,0.5]];portConstraint=eastwest;top=0;left=0;right=0;bottom=0;" parent="EKDiO9YUNdJGLWvZ-4pt-24" vertex="1">
          <mxGeometry y="90" width="200" height="35" as="geometry" />
        </mxCell>
        <mxCell id="EKDiO9YUNdJGLWvZ-4pt-32" value="FK" style="shape=partialRectangle;connectable=0;fillColor=light-dark(#FFFFFF,#000000);top=0;left=0;bottom=0;right=0;editable=1;overflow=hidden;whiteSpace=wrap;html=1;" parent="EKDiO9YUNdJGLWvZ-4pt-31" vertex="1">
          <mxGeometry width="30" height="35" as="geometry">
            <mxRectangle width="30" height="35" as="alternateBounds" />
          </mxGeometry>
        </mxCell>
        <mxCell id="EKDiO9YUNdJGLWvZ-4pt-33" value="relation&lt;span style=&quot;background-color: transparent; color: light-dark(rgb(0, 0, 0), rgb(255, 255, 255));&quot;&gt;_id integer NOT NULL&lt;/span&gt;" style="shape=partialRectangle;connectable=0;fillColor=light-dark(#FFFFFF,#000000);top=0;left=0;bottom=0;right=0;align=left;spacingLeft=6;overflow=hidden;whiteSpace=wrap;html=1;" parent="EKDiO9YUNdJGLWvZ-4pt-31" vertex="1">
          <mxGeometry x="30" width="170" height="35" as="geometry">
            <mxRectangle width="170" height="35" as="alternateBounds" />
          </mxGeometry>
        </mxCell>
        <mxCell id="EKDiO9YUNdJGLWvZ-4pt-37" value="" style="edgeStyle=entityRelationEdgeStyle;fontSize=12;html=1;endArrow=ERoneToMany;rounded=0;exitX=1;exitY=0.5;exitDx=0;exitDy=0;entryX=0;entryY=0.5;entryDx=0;entryDy=0;fillColor=light-dark(#FFFFFF,#000000);" parent="1" source="c9jh2oVVF1-GprEwR0dj-39" target="EKDiO9YUNdJGLWvZ-4pt-28" edge="1">
          <mxGeometry width="100" height="100" relative="1" as="geometry">
            <mxPoint x="682.4199999999996" y="305.28999999999996" as="sourcePoint" />
            <mxPoint x="860" y="390" as="targetPoint" />
          </mxGeometry>
        </mxCell>
        <mxCell id="EKDiO9YUNdJGLWvZ-4pt-38" value="" style="edgeStyle=entityRelationEdgeStyle;fontSize=12;html=1;endArrow=ERoneToMany;rounded=0;exitX=0;exitY=0.5;exitDx=0;exitDy=0;entryX=1;entryY=0.5;entryDx=0;entryDy=0;fillColor=light-dark(#FFFFFF,#000000);" parent="1" source="c9jh2oVVF1-GprEwR0dj-64" target="EKDiO9YUNdJGLWvZ-4pt-31" edge="1">
          <mxGeometry width="100" height="100" relative="1" as="geometry">
            <mxPoint x="760" y="490" as="sourcePoint" />
            <mxPoint x="860" y="390" as="targetPoint" />
          </mxGeometry>
        </mxCell>
        <mxCell id="EKDiO9YUNdJGLWvZ-4pt-39" value="" style="edgeStyle=entityRelationEdgeStyle;fontSize=12;html=1;endArrow=ERmany;startArrow=ERmany;rounded=0;exitX=1;exitY=0.5;exitDx=0;exitDy=0;entryX=0;entryY=0.5;entryDx=0;entryDy=0;fillColor=light-dark(#FFFFFF,#000000);" parent="1" target="5BqqWERzwNXMWdmKXzrG-128" edge="1" source="5BqqWERzwNXMWdmKXzrG-186">
          <mxGeometry width="100" height="100" relative="1" as="geometry">
            <mxPoint x="-120.00000000000045" y="305" as="sourcePoint" />
            <mxPoint x="70" y="250" as="targetPoint" />
          </mxGeometry>
        </mxCell>
      </root>
    </mxGraphModel>
  </diagram>
</mxfile>
